Baumans-Regular.ufo
<glyph name="exclam" format="1">
  <advance width="274"/>
  <unicode hex="0021"/>
  <outline>
    <contour>
      <point x="80" y="659" type="curve" smooth="yes"/>
      <point x="80" y="626"/>
      <point x="97" y="501"/>
      <point x="97" y="181" type="curve"/>
      <point x="181" y="181" type="line"/>
      <point x="181" y="501"/>
      <point x="194" y="626"/>
      <point x="194" y="659" type="curve" smooth="yes"/>
      <point x="194" y="694"/>
      <point x="172" y="711"/>
      <point x="137" y="711" type="curve" smooth="yes"/>
      <point x="102" y="711"/>
      <point x="80" y="694"/>
    </contour>
    <contour>
      <point x="75" y="52" type="curve" smooth="yes"/>
      <point x="75" y="17"/>
      <point x="102" y="-10"/>
      <point x="137" y="-10" type="curve" smooth="yes"/>
      <point x="172" y="-10"/>
      <point x="199" y="17"/>
      <point x="199" y="52" type="curve" smooth="yes"/>
      <point x="199" y="87"/>
      <point x="172" y="114"/>
      <point x="137" y="114" type="curve" smooth="yes"/>
      <point x="102" y="114"/>
      <point x="75" y="87"/>
    </contour>
  </outline>
</glyph>
<glyph name="numbersign" format="1">
  <advance width="602"/>
  <unicode hex="0023"/>
  <outline>
    <contour>
      <point x="518" y="278" type="line"/>
      <point x="427" y="278" type="line"/>
      <point x="447" y="422" type="line"/>
      <point x="544" y="422" type="line"/>
      <point x="547" y="486" type="line"/>
      <point x="456" y="486" type="line"/>
      <point x="486" y="700" type="line"/>
      <point x="414" y="700" type="line"/>
      <point x="384" y="486" type="line"/>
      <point x="265" y="486" type="line"/>
      <point x="295" y="700" type="line"/>
      <point x="223" y="700" type="line"/>
      <point x="193" y="486" type="line"/>
      <point x="87" y="486" type="line"/>
      <point x="84" y="422" type="line"/>
      <point x="184" y="422" type="line"/>
      <point x="164" y="278" type="line"/>
      <point x="58" y="278" type="line"/>
      <point x="55" y="214" type="line"/>
      <point x="155" y="214" type="line"/>
      <point x="125" y="0" type="line"/>
      <point x="197" y="0" type="line"/>
      <point x="227" y="214" type="line"/>
      <point x="346" y="214" type="line"/>
      <point x="316" y="0" type="line"/>
      <point x="388" y="0" type="line"/>
      <point x="418" y="214" type="line"/>
      <point x="515" y="214" type="line"/>
    </contour>
    <contour>
      <point x="375" y="422" type="line"/>
      <point x="355" y="278" type="line"/>
      <point x="236" y="278" type="line"/>
      <point x="256" y="422" type="line"/>
    </contour>
  </outline>
</glyph>
<glyph name="dollar" format="1">
  <advance width="511"/>
  <unicode hex="0024"/>
  <outline>
    <contour>
      <point x="231" y="750" type="line"/>
      <point x="291" y="750" type="line"/>
      <point x="291" y="700" type="line"/>
      <point x="423" y="700" type="line"/>
      <point x="423" y="612" type="line"/>
      <point x="291" y="612" type="line"/>
      <point x="291" y="404" type="line"/>
      <point x="310" y="397" type="line" smooth="yes"/>
      <point x="355" y="380"/>
      <point x="384" y="364"/>
      <point x="416" y="335" type="curve" smooth="yes"/>
      <point x="448" y="306"/>
      <point x="464" y="259"/>
      <point x="464" y="199" type="curve"/>
      <point x="466" y="96"/>
      <point x="390" y="34"/>
      <point x="321" y="13" type="curve" smooth="yes"/>
      <point x="311" y="10"/>
      <point x="301" y="7"/>
      <point x="291" y="5" type="curve"/>
      <point x="291" y="-60" type="line"/>
      <point x="231" y="-60" type="line"/>
      <point x="231" y="0" type="line"/>
      <point x="58" y="0" type="line"/>
      <point x="58" y="88" type="line"/>
      <point x="231" y="88" type="line"/>
      <point x="231" y="326" type="line"/>
      <point x="216" y="332" type="line"/>
      <point x="202" y="337" type="line" smooth="yes"/>
      <point x="97" y="377"/>
      <point x="45" y="442"/>
      <point x="45" y="533" type="curve" smooth="yes"/>
      <point x="45" y="589"/>
      <point x="63" y="631"/>
      <point x="99" y="658" type="curve" smooth="yes"/>
      <point x="133" y="685"/>
      <point x="177" y="699"/>
      <point x="231" y="700" type="curve"/>
    </contour>
    <contour>
      <point x="145" y="530" type="curve" smooth="yes"/>
      <point x="145" y="501"/>
      <point x="160" y="476"/>
      <point x="189" y="455" type="curve" smooth="yes"/>
      <point x="201" y="447"/>
      <point x="215" y="439"/>
      <point x="231" y="431" type="curve"/>
      <point x="231" y="611" type="line"/>
      <point x="174" y="607"/>
      <point x="145" y="580"/>
    </contour>
    <contour>
      <point x="322" y="116" type="curve" smooth="yes"/>
      <point x="351" y="135"/>
      <point x="365" y="163"/>
      <point x="365" y="200" type="curve" smooth="yes"/>
      <point x="365" y="236"/>
      <point x="349" y="263"/>
      <point x="318" y="283" type="curve" smooth="yes"/>
      <point x="309" y="289"/>
      <point x="300" y="294"/>
      <point x="291" y="299" type="curve"/>
      <point x="291" y="101" type="line"/>
      <point x="302" y="105"/>
      <point x="313" y="110"/>
    </contour>
  </outline>
</glyph>
<glyph name="percent" format="1">
  <advance width="898"/>
  <unicode hex="0025"/>
  <outline>
    <component base="fraction" xOffset="270"/>
    <contour>
      <point x="495" y="168" type="curve" smooth="yes"/>
      <point x="495" y="75"/>
      <point x="570" y="4"/>
      <point x="659" y="4" type="curve" smooth="yes"/>
      <point x="748" y="4"/>
      <point x="823" y="75"/>
      <point x="823" y="168" type="curve" smooth="yes"/>
      <point x="823" y="261"/>
      <point x="748" y="332"/>
      <point x="659" y="332" type="curve" smooth="yes"/>
      <point x="570" y="332"/>
      <point x="495" y="261"/>
    </contour>
    <contour>
      <point x="573" y="168" type="curve" smooth="yes"/>
      <point x="573" y="219"/>
      <point x="613" y="254"/>
      <point x="658" y="254" type="curve" smooth="yes"/>
      <point x="705" y="254"/>
      <point x="745" y="218"/>
      <point x="745" y="168" type="curve" smooth="yes"/>
      <point x="745" y="117"/>
      <point x="706" y="82"/>
      <point x="659" y="82" type="curve" smooth="yes"/>
      <point x="612" y="82"/>
      <point x="573" y="117"/>
    </contour>
    <contour>
      <point x="75" y="548" type="curve" smooth="yes"/>
      <point x="75" y="455"/>
      <point x="150" y="384"/>
      <point x="239" y="384" type="curve" smooth="yes"/>
      <point x="328" y="384"/>
      <point x="403" y="455"/>
      <point x="403" y="548" type="curve" smooth="yes"/>
      <point x="403" y="641"/>
      <point x="328" y="712"/>
      <point x="239" y="712" type="curve" smooth="yes"/>
      <point x="150" y="712"/>
      <point x="75" y="641"/>
    </contour>
    <contour>
      <point x="153" y="548" type="curve" smooth="yes"/>
      <point x="153" y="599"/>
      <point x="193" y="634"/>
      <point x="238" y="634" type="curve" smooth="yes"/>
      <point x="285" y="634"/>
      <point x="325" y="598"/>
      <point x="325" y="548" type="curve" smooth="yes"/>
      <point x="325" y="497"/>
      <point x="286" y="462"/>
      <point x="239" y="462" type="curve" smooth="yes"/>
      <point x="192" y="462"/>
      <point x="153" y="497"/>
    </contour>
  </outline>
</glyph>
<glyph name="ampersand" format="1">
  <advance width="591"/>
  <unicode hex="0026"/>
  <outline>
    <contour>
      <point x="295" y="700" type="curve" smooth="yes"/>
      <point x="233" y="700"/>
      <point x="173" y="697"/>
      <point x="125" y="652" type="curve" smooth="yes"/>
      <point x="102" y="630"/>
      <point x="78" y="593"/>
      <point x="78" y="533" type="curve" smooth="yes"/>
      <point x="78" y="460"/>
      <point x="107" y="403"/>
      <point x="185" y="376" type="curve"/>
      <point x="185" y="372" type="line"/>
      <point x="94" y="347"/>
      <point x="55" y="276"/>
      <point x="55" y="199" type="curve" smooth="yes"/>
      <point x="55" y="152"/>
      <point x="66" y="109"/>
      <point x="101" y="70" type="curve" smooth="yes"/>
      <point x="156" y="7"/>
      <point x="224" y="0"/>
      <point x="283" y="0" type="curve" smooth="yes"/>
      <point x="347" y="0"/>
      <point x="498" y="15"/>
      <point x="510" y="199" type="curve"/>
      <point x="510" y="328" type="line"/>
      <point x="566" y="328" type="line"/>
      <point x="566" y="416" type="line"/>
      <point x="307" y="416" type="line" smooth="yes"/>
      <point x="252" y="416"/>
      <point x="172" y="435"/>
      <point x="172" y="520" type="curve" smooth="yes"/>
      <point x="172" y="600"/>
      <point x="238" y="612"/>
      <point x="282" y="612" type="curve"/>
      <point x="355" y="611"/>
      <point x="386" y="583"/>
      <point x="392" y="533" type="curve"/>
      <point x="487" y="533" type="line"/>
      <point x="482" y="640"/>
      <point x="419" y="700"/>
    </contour>
    <contour>
      <point x="289" y="88" type="curve" smooth="yes"/>
      <point x="196" y="88"/>
      <point x="149" y="136"/>
      <point x="149" y="206" type="curve" smooth="yes"/>
      <point x="149" y="301"/>
      <point x="209" y="328"/>
      <point x="319" y="328" type="curve" smooth="yes"/>
      <point x="417" y="328" type="line"/>
      <point x="417" y="206" type="line"/>
      <point x="416" y="206" type="line"/>
      <point x="410" y="118"/>
      <point x="351" y="88"/>
    </contour>
  </outline>
</glyph>
<glyph name="quotesingle" format="1">
  <advance width="158"/>
  <unicode hex="0027"/>
  <outline>
    <contour>
      <point x="35" y="700" type="line"/>
      <point x="45" y="480" type="line"/>
      <point x="113" y="480" type="line"/>
      <point x="123" y="700" type="line"/>
    </contour>
  </outline>
</glyph>
<glyph name="parenleft" format="1">
  <advance width="386"/>
  <unicode hex="0028"/>
  <outline>
    <contour>
      <point x="341" y="-78" type="line"/>
      <point x="277" y="-27"/>
      <point x="163" y="88"/>
      <point x="163" y="320" type="curve" smooth="yes"/>
      <point x="163" y="531"/>
      <point x="261" y="647"/>
      <point x="341" y="708" type="curve"/>
      <point x="291" y="762" type="line"/>
      <point x="126" y="639"/>
      <point x="75" y="456"/>
      <point x="75" y="315" type="curve" smooth="yes"/>
      <point x="75" y="170"/>
      <point x="126" y="-12"/>
      <point x="295" y="-138" type="curve"/>
    </contour>
  </outline>
</glyph>
<glyph name="parenright" format="1">
  <advance width="386"/>
  <unicode hex="0029"/>
  <outline>
    <contour>
      <point x="45" y="702" type="line"/>
      <point x="109" y="651"/>
      <point x="223" y="538"/>
      <point x="223" y="304" type="curve" smooth="yes"/>
      <point x="223" y="93"/>
      <point x="125" y="-20"/>
      <point x="45" y="-84" type="curve"/>
      <point x="95" y="-138" type="line"/>
      <point x="260" y="-15"/>
      <point x="311" y="168"/>
      <point x="311" y="309" type="curve" smooth="yes"/>
      <point x="311" y="453"/>
      <point x="258" y="637"/>
      <point x="91" y="762" type="curve"/>
    </contour>
  </outline>
</glyph>
<glyph name="asterisk" format="1">
  <advance width="466"/>
  <unicode hex="002A"/>
  <outline>
    <contour>
      <point x="83" y="374" type="line"/>
      <point x="207" y="454" type="line"/>
      <point x="195" y="314" type="line"/>
      <point x="271" y="314" type="line"/>
      <point x="259" y="454" type="line"/>
      <point x="383" y="374" type="line"/>
      <point x="421" y="436" type="line"/>
      <point x="289" y="507" type="line"/>
      <point x="421" y="576" type="line"/>
      <point x="383" y="638" type="line"/>
      <point x="259" y="554" type="line"/>
      <point x="271" y="700" type="line"/>
      <point x="195" y="700" type="line"/>
      <point x="207" y="554" type="line"/>
      <point x="83" y="638" type="line"/>
      <point x="45" y="576" type="line"/>
      <point x="177" y="507" type="line"/>
      <point x="45" y="436" type="line"/>
    </contour>
  </outline>
</glyph>
<glyph name="plus" format="1">
  <advance width="580"/>
  <unicode hex="002B"/>
  <outline>
    <contour>
      <point x="251" y="279" type="line"/>
      <point x="50" y="279" type="line"/>
      <point x="50" y="201" type="line"/>
      <point x="251" y="201" type="line"/>
      <point x="251" y="0" type="line"/>
      <point x="329" y="0" type="line"/>
      <point x="329" y="201" type="line"/>
      <point x="530" y="201" type="line"/>
      <point x="530" y="279" type="line"/>
      <point x="329" y="279" type="line"/>
      <point x="329" y="480" type="line"/>
      <point x="251" y="480" type="line"/>
    </contour>
  </outline>
</glyph>
<glyph name="comma" format="1">
  <advance width="216"/>
  <unicode hex="002C"/>
  <outline>
    <contour>
      <point x="84" y="-155" type="line"/>
      <point x="136" y="-102"/>
      <point x="181" y="-30"/>
      <point x="181" y="84" type="curve"/>
      <point x="50" y="84" type="line"/>
      <point x="10" y="0" type="line"/>
      <point x="78" y="0" type="line"/>
      <point x="73" y="-38"/>
      <point x="61" y="-70"/>
      <point x="34" y="-123" type="curve"/>
    </contour>
  </outline>
</glyph>
<glyph name="hyphen" format="1">
  <advance width="290"/>
  <unicode hex="002D"/>
  <outline>
    <contour>
      <point x="257" y="200" type="line"/>
      <point x="257" y="280" type="line"/>
      <point x="33" y="280" type="line"/>
      <point x="33" y="200" type="line"/>
    </contour>
  </outline>
</glyph>
<glyph name="period" format="1">
  <advance width="169"/>
  <unicode hex="002E"/>
  <outline>
    <contour>
      <point x="10" y="52" type="curve" smooth="yes"/>
      <point x="10" y="17"/>
      <point x="37" y="-10"/>
      <point x="72" y="-10" type="curve" smooth="yes"/>
      <point x="107" y="-10"/>
      <point x="134" y="17"/>
      <point x="134" y="52" type="curve" smooth="yes"/>
      <point x="134" y="87"/>
      <point x="107" y="114"/>
      <point x="72" y="114" type="curve" smooth="yes"/>
      <point x="37" y="114"/>
      <point x="10" y="87"/>
    </contour>
  </outline>
</glyph>
<glyph name="slash" format="1">
  <advance width="352"/>
  <unicode hex="002F"/>
  <outline>
    <contour>
      <point x="382" y="710" type="line"/>
      <point x="294" y="710" type="line"/>
      <point x="-30" y="-10" type="line"/>
      <point x="58" y="-10" type="line"/>
    </contour>
  </outline>
</glyph>
<glyph name="zero" format="1">
  <advance width="592"/>
  <unicode hex="0030"/>
  <outline>
    <contour>
      <point x="296" y="78" type="curve" smooth="yes"/>
      <point x="186" y="78"/>
      <point x="151" y="132"/>
      <point x="151" y="353" type="curve" smooth="yes"/>
      <point x="151" y="574"/>
      <point x="186" y="628"/>
      <point x="296" y="628" type="curve"/>
      <point x="406" y="628"/>
      <point x="441" y="574"/>
      <point x="441" y="353" type="curve" smooth="yes"/>
      <point x="441" y="132"/>
      <point x="406" y="78"/>
    </contour>
    <contour>
      <point x="55" y="353" type="curve" smooth="yes"/>
      <point x="55" y="178"/>
      <point x="83" y="-10"/>
      <point x="296" y="-10" type="curve" smooth="yes"/>
      <point x="509" y="-10"/>
      <point x="537" y="178"/>
      <point x="537" y="353" type="curve"/>
      <point x="537" y="528"/>
      <point x="509" y="710"/>
      <point x="296" y="710" type="curve"/>
      <point x="83" y="710"/>
      <point x="55" y="528"/>
    </contour>
  </outline>
</glyph>
<glyph name="one" format="1">
  <advance width="318"/>
  <unicode hex="0031"/>
  <outline>
    <contour>
      <point x="248" y="0" type="line"/>
      <point x="248" y="700" type="line"/>
      <point x="154" y="700" type="line"/>
      <point x="154" y="0" type="line"/>
    </contour>
    <contour>
      <point x="219" y="606" type="line"/>
      <point x="219" y="700" type="line"/>
      <point x="67" y="700" type="line"/>
      <point x="25" y="606" type="line"/>
    </contour>
  </outline>
</glyph>
<glyph name="two" format="1">
  <advance width="532"/>
  <unicode hex="0032"/>
  <outline>
    <contour>
      <point x="472" y="511" type="line"/>
      <point x="472" y="636"/>
      <point x="388" y="709"/>
      <point x="248" y="709" type="curve" smooth="yes"/>
      <point x="135" y="709"/>
      <point x="73" y="647"/>
      <point x="32" y="572" type="curve"/>
      <point x="106" y="510" type="line"/>
      <point x="137" y="574"/>
      <point x="183" y="618"/>
      <point x="251" y="618" type="curve" smooth="yes"/>
      <point x="333" y="618"/>
      <point x="371" y="570"/>
      <point x="371" y="516" type="curve"/>
    </contour>
    <contour>
      <point x="466" y="0" type="line"/>
      <point x="466" y="94" type="line"/>
      <point x="87" y="94" type="line"/>
      <point x="87" y="0" type="line"/>
    </contour>
    <contour>
      <point x="472" y="511" type="curve"/>
      <point x="371" y="516" type="line"/>
      <point x="371" y="456"/>
      <point x="349" y="411"/>
      <point x="292" y="367" type="curve" smooth="yes"/>
      <point x="181" y="281"/>
      <point x="42" y="187"/>
      <point x="42" y="44" type="curve" smooth="yes"/>
      <point x="42" y="0" type="line"/>
      <point x="132" y="0" type="line"/>
      <point x="132" y="44" type="line" smooth="yes"/>
      <point x="132" y="135"/>
      <point x="246" y="215"/>
      <point x="369" y="311" type="curve"/>
      <point x="436" y="368"/>
      <point x="472" y="416"/>
    </contour>
  </outline>
</glyph>
<glyph name="three" format="1">
  <advance width="532"/>
  <unicode hex="0033"/>
  <outline>
    <contour>
      <point x="392" y="220" type="line"/>
      <point x="392" y="116"/>
      <point x="337" y="78"/>
      <point x="255" y="78" type="curve" smooth="yes"/>
      <point x="173" y="78"/>
      <point x="120" y="125"/>
      <point x="106" y="200" type="curve"/>
      <point x="32" y="127" type="line"/>
      <point x="54" y="37"/>
      <point x="135" y="-10"/>
      <point x="258" y="-10" type="curve" smooth="yes"/>
      <point x="398" y="-10"/>
      <point x="494" y="73"/>
      <point x="494" y="220" type="curve"/>
    </contour>
    <contour>
      <point x="494" y="220" type="line"/>
      <point x="494" y="355"/>
      <point x="406" y="441"/>
      <point x="237" y="441" type="curve" smooth="yes"/>
      <point x="181" y="441" type="line"/>
      <point x="181" y="347" type="line"/>
      <point x="237" y="347" type="line" smooth="yes"/>
      <point x="332" y="347"/>
      <point x="392" y="311"/>
      <point x="392" y="220" type="curve"/>
    </contour>
    <contour>
      <point x="395" y="606" type="line"/>
      <point x="395" y="700" type="line"/>
      <point x="65" y="700" type="line"/>
      <point x="65" y="606" type="line"/>
    </contour>
    <contour>
      <point x="181" y="377" type="line"/>
      <point x="334" y="414"/>
      <point x="451" y="492"/>
      <point x="451" y="679" type="curve" smooth="yes"/>
      <point x="451" y="700" type="line"/>
      <point x="371" y="700" type="line"/>
      <point x="371" y="688" type="line" smooth="yes"/>
      <point x="371" y="570"/>
      <point x="288" y="474"/>
      <point x="181" y="441" type="curve"/>
    </contour>
  </outline>
</glyph>
<glyph name="four" format="1">
  <advance width="566"/>
  <unicode hex="0034"/>
  <outline>
    <contour>
      <point x="347" y="0" type="line"/>
      <point x="441" y="0" type="line"/>
      <point x="441" y="700" type="line"/>
      <point x="347" y="700" type="line"/>
    </contour>
    <contour>
      <point x="56" y="159" type="line"/>
      <point x="521" y="159" type="line"/>
      <point x="521" y="247" type="line"/>
      <point x="56" y="247" type="line"/>
    </contour>
    <contour>
      <point x="347" y="700" type="line"/>
      <point x="165" y="483" type="line"/>
      <point x="86" y="382"/>
      <point x="45" y="296"/>
      <point x="45" y="203" type="curve" smooth="yes"/>
      <point x="45" y="159" type="line"/>
      <point x="137" y="159" type="line"/>
      <point x="137" y="203" type="line" smooth="yes"/>
      <point x="137" y="281"/>
      <point x="159" y="334"/>
      <point x="236" y="440" type="curve"/>
      <point x="357" y="580" type="line"/>
      <point x="421" y="700" type="line"/>
    </contour>
  </outline>
</glyph>
<glyph name="five" format="1">
  <advance width="532"/>
  <unicode hex="0035"/>
  <outline>
    <contour>
      <point x="392" y="225" type="line"/>
      <point x="392" y="121"/>
      <point x="337" y="78"/>
      <point x="255" y="78" type="curve" smooth="yes"/>
      <point x="176" y="78"/>
      <point x="144" y="110"/>
      <point x="111" y="170" type="curve"/>
      <point x="32" y="127" type="line"/>
      <point x="54" y="37"/>
      <point x="135" y="-10"/>
      <point x="258" y="-10" type="curve" smooth="yes"/>
      <point x="398" y="-10"/>
      <point x="494" y="78"/>
      <point x="494" y="225" type="curve" name="hr01"/>
    </contour>
    <contour>
      <point x="170" y="367" type="line"/>
      <point x="170" y="606" type="line"/>
      <point x="466" y="606" type="line"/>
      <point x="466" y="700" type="line"/>
      <point x="82" y="700" type="line"/>
      <point x="82" y="367" type="line"/>
    </contour>
    <contour>
      <point x="494" y="225" type="line"/>
      <point x="494" y="372"/>
      <point x="412" y="455"/>
      <point x="257" y="455" type="curve" smooth="yes"/>
      <point x="81" y="455" type="line"/>
      <point x="81" y="367" type="line"/>
      <point x="257" y="367" type="line" smooth="yes"/>
      <point x="340" y="367"/>
      <point x="392" y="330"/>
      <point x="392" y="225" type="curve"/>
    </contour>
  </outline>
</glyph>
<glyph name="six" format="1">
  <advance width="569"/>
  <unicode hex="0036"/>
  <outline>
    <contour>
      <point x="415" y="225" type="curve"/>
      <point x="514" y="225" type="line"/>
      <point x="512" y="362"/>
      <point x="434" y="444"/>
      <point x="308" y="444" type="curve" smooth="yes"/>
      <point x="276" y="444"/>
      <point x="242" y="438"/>
      <point x="210" y="426" type="curve"/>
      <point x="210" y="345" type="line"/>
      <point x="243" y="354"/>
      <point x="274" y="357"/>
      <point x="302" y="357" type="curve" smooth="yes"/>
      <point x="377" y="357"/>
      <point x="410" y="313"/>
    </contour>
    <contour>
      <point x="299" y="-10" type="curve" smooth="yes"/>
      <point x="427" y="-10"/>
      <point x="514" y="78"/>
      <point x="514" y="225" type="curve"/>
      <point x="415" y="225" type="line"/>
      <point x="415" y="121"/>
      <point x="366" y="74"/>
      <point x="296" y="74" type="curve" smooth="yes"/>
      <point x="189" y="74"/>
      <point x="140" y="152"/>
      <point x="140" y="350" type="curve" smooth="yes"/>
      <point x="140" y="511"/>
      <point x="240" y="612"/>
      <point x="378" y="612" type="curve" smooth="yes"/>
      <point x="448" y="612" type="line"/>
      <point x="448" y="700" type="line"/>
      <point x="390" y="700" type="line" smooth="yes"/>
      <point x="189" y="700"/>
      <point x="45" y="563"/>
      <point x="45" y="350" type="curve" smooth="yes"/>
      <point x="45" y="99"/>
      <point x="121" y="-10"/>
    </contour>
  </outline>
</glyph>
<glyph name="seven" format="1">
  <advance width="449"/>
  <unicode hex="0037"/>
  <outline>
    <contour>
      <point x="386" y="612" type="line"/>
      <point x="386" y="700" type="line"/>
      <point x="15" y="700" type="line"/>
      <point x="15" y="612" type="line"/>
    </contour>
    <contour>
      <point x="414" y="700" type="line"/>
      <point x="324" y="700" type="line"/>
      <point x="324" y="688" type="line" smooth="yes"/>
      <point x="324" y="431"/>
      <point x="115" y="358"/>
      <point x="115" y="44" type="curve" smooth="yes"/>
      <point x="115" y="0" type="line"/>
      <point x="213" y="0" type="line"/>
      <point x="213" y="44" type="line" smooth="yes"/>
      <point x="213" y="339"/>
      <point x="414" y="403"/>
      <point x="414" y="679" type="curve" smooth="yes"/>
    </contour>
  </outline>
</glyph>
<glyph name="eight" format="1">
  <advance width="558"/>
  <unicode hex="0038"/>
  <outline>
    <contour>
      <point x="279" y="710" type="curve" smooth="yes"/>
      <point x="132" y="710"/>
      <point x="70" y="617"/>
      <point x="70" y="522" type="curve" smooth="yes"/>
      <point x="70" y="452"/>
      <point x="102" y="396"/>
      <point x="164" y="367" type="curve"/>
      <point x="164" y="363" type="line"/>
      <point x="92" y="338"/>
      <point x="55" y="275"/>
      <point x="55" y="184" type="curve" smooth="yes"/>
      <point x="55" y="82"/>
      <point x="121" y="-10"/>
      <point x="279" y="-10" type="curve"/>
      <point x="437" y="-10"/>
      <point x="503" y="82"/>
      <point x="503" y="184" type="curve" smooth="yes"/>
      <point x="503" y="275"/>
      <point x="466" y="338"/>
      <point x="394" y="363" type="curve"/>
      <point x="394" y="367" type="line"/>
      <point x="456" y="396"/>
      <point x="488" y="452"/>
      <point x="488" y="522" type="curve" smooth="yes"/>
      <point x="488" y="617"/>
      <point x="426" y="710"/>
    </contour>
    <contour>
      <point x="279" y="328" type="curve" smooth="yes"/>
      <point x="362" y="328"/>
      <point x="406" y="277"/>
      <point x="406" y="196" type="curve" smooth="yes"/>
      <point x="406" y="125"/>
      <point x="377" y="68"/>
      <point x="279" y="68" type="curve" smooth="yes"/>
      <point x="190" y="68"/>
      <point x="152" y="125"/>
      <point x="152" y="196" type="curve" smooth="yes"/>
      <point x="152" y="277"/>
      <point x="194" y="328"/>
    </contour>
    <contour>
      <point x="279" y="632" type="curve" smooth="yes"/>
      <point x="367" y="632"/>
      <point x="394" y="571"/>
      <point x="394" y="510" type="curve" smooth="yes"/>
      <point x="394" y="434"/>
      <point x="342" y="396"/>
      <point x="279" y="396" type="curve" smooth="yes"/>
      <point x="216" y="396"/>
      <point x="164" y="434"/>
      <point x="164" y="510" type="curve" smooth="yes"/>
      <point x="164" y="571"/>
      <point x="191" y="632"/>
    </contour>
  </outline>
</glyph>
<glyph name="less" format="1">
  <advance width="462"/>
  <unicode hex="003C"/>
  <outline>
    <contour>
      <point x="132" y="240" type="line"/>
      <point x="397" y="355" type="line"/>
      <point x="397" y="435" type="line"/>
      <point x="35" y="275" type="line"/>
      <point x="35" y="205" type="line"/>
      <point x="397" y="45" type="line"/>
      <point x="397" y="125" type="line"/>
    </contour>
  </outline>
</glyph>
<glyph name="equal" format="1">
  <advance width="580"/>
  <unicode hex="003D"/>
  <outline>
    <contour>
      <point x="530" y="378" type="line"/>
      <point x="50" y="378" type="line"/>
      <point x="50" y="300" type="line"/>
      <point x="530" y="300" type="line"/>
    </contour>
    <contour>
      <point x="530" y="180" type="line"/>
      <point x="50" y="180" type="line"/>
      <point x="50" y="102" type="line"/>
      <point x="530" y="102" type="line"/>
    </contour>
  </outline>
</glyph>
<glyph name="greater" format="1">
  <advance width="462"/>
  <unicode hex="003E"/>
  <outline>
    <contour>
      <point x="65" y="125" type="line"/>
      <point x="65" y="45" type="line"/>
      <point x="427" y="205" type="line"/>
      <point x="427" y="275" type="line"/>
      <point x="65" y="435" type="line"/>
      <point x="65" y="355" type="line"/>
      <point x="330" y="240" type="line"/>
    </contour>
  </outline>
</glyph>
<glyph name="question" format="1">
  <advance width="528"/>
  <unicode hex="003F"/>
  <outline>
    <contour>
      <point x="193" y="430" type="line"/>
      <point x="171" y="451"/>
      <point x="162" y="479"/>
      <point x="162" y="499" type="curve" smooth="yes"/>
      <point x="162" y="561"/>
      <point x="209" y="593"/>
      <point x="258" y="593" type="curve" smooth="yes"/>
      <point x="309" y="593"/>
      <point x="361" y="557"/>
      <point x="361" y="486" type="curve" smooth="yes"/>
      <point x="361" y="425"/>
      <point x="296" y="359"/>
      <point x="244" y="294" type="curve" smooth="yes"/>
      <point x="221" y="265"/>
      <point x="207" y="246"/>
      <point x="207" y="201" type="curve"/>
      <point x="304" y="201" type="line"/>
      <point x="304" y="285"/>
      <point x="453" y="366"/>
      <point x="453" y="497" type="curve" smooth="yes"/>
      <point x="453" y="621"/>
      <point x="359" y="679"/>
      <point x="264" y="679" type="curve" smooth="yes"/>
      <point x="165" y="679"/>
      <point x="75" y="614"/>
      <point x="75" y="503" type="curve" smooth="yes"/>
      <point x="75" y="461"/>
      <point x="82" y="409"/>
      <point x="135" y="371" type="curve"/>
    </contour>
    <contour>
      <point x="196" y="52" type="curve" smooth="yes"/>
      <point x="196" y="17"/>
      <point x="223" y="-10"/>
      <point x="258" y="-10" type="curve" smooth="yes"/>
      <point x="293" y="-10"/>
      <point x="320" y="17"/>
      <point x="320" y="52" type="curve" smooth="yes"/>
      <point x="320" y="87"/>
      <point x="293" y="114"/>
      <point x="258" y="114" type="curve" smooth="yes"/>
      <point x="223" y="114"/>
      <point x="196" y="87"/>
    </contour>
  </outline>
</glyph>
<glyph name="at" format="1">
  <advance width="784"/>
  <unicode hex="0040"/>
  <outline>
    <contour>
      <point x="623" y="137" type="line"/>
      <point x="558" y="88"/>
      <point x="513" y="64"/>
      <point x="416" y="64" type="curve" smooth="yes"/>
      <point x="254" y="64"/>
      <point x="134" y="182"/>
      <point x="134" y="344" type="curve" smooth="yes"/>
      <point x="134" y="458"/>
      <point x="194" y="548"/>
      <point x="272" y="594" type="curve" smooth="yes"/>
      <point x="313" y="617"/>
      <point x="360" y="630"/>
      <point x="407" y="630" type="curve" smooth="yes"/>
      <point x="453" y="630"/>
      <point x="499" y="621"/>
      <point x="539" y="600" type="curve"/>
      <point x="538" y="600" type="line"/>
      <point x="586" y="572"/>
      <point x="649" y="514"/>
      <point x="649" y="399" type="curve" smooth="yes"/>
      <point x="649" y="323"/>
      <point x="620" y="253"/>
      <point x="592" y="253" type="curve" smooth="yes"/>
      <point x="578" y="253"/>
      <point x="578" y="263"/>
      <point x="578" y="275" type="curve" smooth="yes"/>
      <point x="578" y="315" type="line" smooth="yes"/>
      <point x="578" y="363"/>
      <point x="576" y="417"/>
      <point x="541" y="463" type="curve" smooth="yes"/>
      <point x="514" y="499"/>
      <point x="468" y="527"/>
      <point x="407" y="527" type="curve" smooth="yes"/>
      <point x="376" y="527"/>
      <point x="348" y="521"/>
      <point x="323" y="507" type="curve" smooth="yes"/>
      <point x="277" y="483"/>
      <point x="227" y="434"/>
      <point x="227" y="348" type="curve" smooth="yes"/>
      <point x="227" y="239"/>
      <point x="305" y="173"/>
      <point x="398" y="173" type="curve" smooth="yes"/>
      <point x="432" y="173"/>
      <point x="456" y="183"/>
      <point x="471" y="193" type="curve"/>
      <point x="471" y="271" type="line"/>
      <point x="449" y="254"/>
      <point x="430" y="249"/>
      <point x="406" y="249" type="curve" smooth="yes"/>
      <point x="351" y="249"/>
      <point x="306" y="288"/>
      <point x="306" y="346" type="curve" smooth="yes"/>
      <point x="306" y="401"/>
      <point x="340" y="451"/>
      <point x="401" y="451" type="curve" smooth="yes"/>
      <point x="498" y="451"/>
      <point x="499" y="347"/>
      <point x="499" y="318" type="curve" smooth="yes"/>
      <point x="499" y="270" type="line" smooth="yes"/>
      <point x="499" y="240"/>
      <point x="503" y="173"/>
      <point x="574" y="173" type="curve" smooth="yes"/>
      <point x="656" y="173"/>
      <point x="729" y="277"/>
      <point x="729" y="408" type="curve" smooth="yes"/>
      <point x="729" y="547"/>
      <point x="642" y="634"/>
      <point x="561" y="674" type="curve"/>
      <point x="516" y="695"/>
      <point x="463" y="705"/>
      <point x="415" y="705" type="curve" smooth="yes"/>
      <point x="357" y="705"/>
      <point x="302" y="693"/>
      <point x="251" y="666" type="curve" smooth="yes"/>
      <point x="150" y="612"/>
      <point x="55" y="506"/>
      <point x="55" y="348" type="curve" smooth="yes"/>
      <point x="55" y="146"/>
      <point x="218" y="-12"/>
      <point x="420" y="-12" type="curve" smooth="yes"/>
      <point x="491" y="-12"/>
      <point x="563" y="10"/>
      <point x="623" y="56" type="curve"/>
    </contour>
  </outline>
</glyph>
<glyph name="A" format="1">
  <advance width="608"/>
  <unicode hex="0041"/>
  <outline>
    <contour>
      <point x="149" y="0" type="line"/>
      <point x="149" y="432" type="line" smooth="yes"/>
      <point x="149" y="565"/>
      <point x="219" y="612"/>
      <point x="309" y="612" type="curve" smooth="yes"/>
      <point x="444" y="612" type="line"/>
      <point x="444" y="0" type="line"/>
      <point x="538" y="0" type="line"/>
      <point x="538" y="700" type="line"/>
      <point x="309" y="700" type="line" smooth="yes"/>
      <point x="158" y="700"/>
      <point x="60" y="580"/>
      <point x="60" y="440" type="curve" smooth="yes"/>
      <point x="60" y="0" type="line"/>
    </contour>
    <contour>
      <point x="111" y="204" type="curve"/>
      <point x="166" y="289"/>
      <point x="206" y="318"/>
      <point x="309" y="318" type="curve" smooth="yes"/>
      <point x="400" y="318" type="line"/>
      <point x="400" y="406" type="line"/>
      <point x="309" y="406" type="line" smooth="yes"/>
      <point x="200" y="406"/>
      <point x="154" y="365"/>
      <point x="111" y="297" type="curve"/>
      <point x="111" y="297"/>
    </contour>
  </outline>
</glyph>
<glyph name="B" format="1">
  <advance width="593"/>
  <unicode hex="0042"/>
  <outline>
    <contour>
      <point x="158" y="0" type="line"/>
      <point x="158" y="475" type="line" smooth="yes"/>
      <point x="158" y="575"/>
      <point x="218" y="622"/>
      <point x="294" y="622" type="curve" smooth="yes"/>
      <point x="390" y="622"/>
      <point x="419" y="566"/>
      <point x="419" y="510" type="curve" smooth="yes"/>
      <point x="419" y="441"/>
      <point x="356" y="401"/>
      <point x="288" y="401" type="curve" smooth="yes"/>
      <point x="224" y="401" type="line"/>
      <point x="224" y="318" type="line"/>
      <point x="323" y="318" type="line" smooth="yes"/>
      <point x="399" y="318"/>
      <point x="451" y="280"/>
      <point x="451" y="206" type="curve" smooth="yes" name="hr01"/>
      <point x="451" y="122"/>
      <point x="409" y="88"/>
      <point x="318" y="88" type="curve" smooth="yes"/>
      <point x="194" y="88" type="line"/>
      <point x="194" y="0" type="line"/>
      <point x="319" y="0" type="line" smooth="yes"/>
      <point x="486" y="0"/>
      <point x="548" y="77"/>
      <point x="548" y="194" type="curve" smooth="yes"/>
      <point x="548" y="285"/>
      <point x="505" y="348"/>
      <point x="419" y="373" type="curve" name="hr02"/>
      <point x="419" y="377" type="line"/>
      <point x="481" y="406"/>
      <point x="513" y="452"/>
      <point x="513" y="522" type="curve" smooth="yes"/>
      <point x="513" y="617"/>
      <point x="450" y="710"/>
      <point x="296" y="710" type="curve" smooth="yes"/>
      <point x="168" y="710"/>
      <point x="65" y="617"/>
      <point x="65" y="477" type="curve" smooth="yes"/>
      <point x="65" y="0" type="line"/>
    </contour>
  </outline>
</glyph>
<glyph name="C" format="1">
  <advance width="525"/>
  <unicode hex="0043"/>
  <outline>
    <contour>
      <point x="60" y="350" type="curve"/>
      <point x="62" y="127"/>
      <point x="191" y="0"/>
      <point x="405" y="0" type="curve" smooth="yes"/>
      <point x="470" y="0" type="line"/>
      <point x="470" y="88" type="line"/>
      <point x="393" y="88" type="line" smooth="yes"/>
      <point x="239" y="88"/>
      <point x="163" y="204"/>
      <point x="161" y="350" type="curve"/>
      <point x="163" y="496"/>
      <point x="239" y="612"/>
      <point x="393" y="612" type="curve" smooth="yes"/>
      <point x="470" y="612" type="line"/>
      <point x="470" y="700" type="line"/>
      <point x="405" y="700" type="line" smooth="yes"/>
      <point x="191" y="700"/>
      <point x="62" y="573"/>
    </contour>
  </outline>
</glyph>
<glyph name="D" format="1">
  <advance width="611"/>
  <unicode hex="0044"/>
  <outline>
    <contour>
      <point x="185" y="88" type="line"/>
      <point x="164" y="88" type="line"/>
      <point x="164" y="612" type="line"/>
      <point x="178" y="612" type="line"/>
      <point x="178" y="700" type="line"/>
      <point x="70" y="700" type="line"/>
      <point x="70" y="0" type="line"/>
      <point x="185" y="0" type="line"/>
    </contour>
    <contour>
      <point x="551" y="350" type="curve"/>
      <point x="549" y="573"/>
      <point x="420" y="700"/>
      <point x="206" y="700" type="curve" smooth="yes"/>
      <point x="141" y="700" type="line"/>
      <point x="141" y="612" type="line"/>
      <point x="218" y="612" type="line" smooth="yes"/>
      <point x="372" y="612"/>
      <point x="448" y="496"/>
      <point x="450" y="350" type="curve"/>
      <point x="448" y="204"/>
      <point x="372" y="88"/>
      <point x="218" y="88" type="curve" smooth="yes"/>
      <point x="141" y="88" type="line"/>
      <point x="141" y="0" type="line"/>
      <point x="206" y="0" type="line" smooth="yes"/>
      <point x="420" y="0"/>
      <point x="549" y="127"/>
    </contour>
  </outline>
</glyph>
<glyph name="E" format="1">
  <advance width="508"/>
  <unicode hex="0045"/>
  <outline>
    <contour>
      <point x="159" y="520" type="line" smooth="yes"/>
      <point x="159" y="600"/>
      <point x="225" y="612"/>
      <point x="269" y="612" type="curve" smooth="yes"/>
      <point x="463" y="612" type="line"/>
      <point x="463" y="700" type="line"/>
      <point x="282" y="700" type="line" smooth="yes"/>
      <point x="220" y="700"/>
      <point x="160" y="697"/>
      <point x="112" y="652" type="curve" smooth="yes"/>
      <point x="89" y="630"/>
      <point x="65" y="593"/>
      <point x="65" y="533" type="curve"/>
      <point x="65" y="0" type="line"/>
      <point x="159" y="0" type="line"/>
      <point x="159" y="318" type="line"/>
      <point x="390" y="318" type="line"/>
      <point x="390" y="406" type="line"/>
      <point x="159" y="406" type="line"/>
    </contour>
    <contour>
      <point x="463" y="0" type="line"/>
      <point x="463" y="88" type="line"/>
      <point x="159" y="88" type="line"/>
      <point x="159" y="88"/>
      <point x="159" y="0"/>
      <point x="159" y="0" type="curve"/>
    </contour>
  </outline>
</glyph>
<glyph name="F" format="1">
  <advance width="408"/>
  <unicode hex="0046"/>
  <outline>
    <contour>
      <point x="159" y="520" type="line" smooth="yes"/>
      <point x="159" y="600"/>
      <point x="225" y="612"/>
      <point x="269" y="612" type="curve" smooth="yes"/>
      <point x="388" y="612" type="line"/>
      <point x="388" y="700" type="line"/>
      <point x="282" y="700" type="line" smooth="yes"/>
      <point x="220" y="700"/>
      <point x="160" y="697"/>
      <point x="112" y="652" type="curve" smooth="yes"/>
      <point x="89" y="630"/>
      <point x="65" y="593"/>
      <point x="65" y="533" type="curve" smooth="yes"/>
      <point x="65" y="0" type="line"/>
      <point x="159" y="0" type="line"/>
      <point x="159" y="298" type="line"/>
      <point x="345" y="298" type="line"/>
      <point x="345" y="386" type="line"/>
      <point x="159" y="386" type="line"/>
    </contour>
  </outline>
  <note>&#x442;&#x438; &#x432;&#x436;&#x435; &#x43d;&#x430;&#x434;&#x442;&#x43e; &#x437;&#x430;&#x432;&#x443;&#x437;&#x438;&#x432; ;)</note>
</glyph>
<glyph name="G" format="1">
  <advance width="614"/>
  <unicode hex="0047"/>
  <outline>
    <contour>
      <point x="393" y="88" type="line"/>
      <point x="239" y="88"/>
      <point x="163" y="204"/>
      <point x="161" y="350" type="curve"/>
      <point x="163" y="496"/>
      <point x="239" y="612"/>
      <point x="393" y="612" type="curve" smooth="yes"/>
      <point x="520" y="612" type="line"/>
      <point x="520" y="700" type="line"/>
      <point x="405" y="700" type="line" smooth="yes"/>
      <point x="191" y="700"/>
      <point x="62" y="573"/>
      <point x="60" y="350" type="curve"/>
      <point x="62" y="127"/>
      <point x="191" y="0"/>
      <point x="405" y="0" type="curve" smooth="yes"/>
      <point x="559" y="0" type="line"/>
      <point x="559" y="386" type="line"/>
      <point x="362" y="386" type="line"/>
      <point x="362" y="298" type="line"/>
      <point x="465" y="298" type="line"/>
      <point x="465" y="88" type="line"/>
    </contour>
  </outline>
</glyph>
<glyph name="H" format="1">
  <advance width="632"/>
  <unicode hex="0048"/>
  <outline>
    <contour>
      <point x="164" y="0" type="line"/>
      <point x="164" y="318" type="line"/>
      <point x="468" y="318" type="line"/>
      <point x="468" y="0" type="line"/>
      <point x="562" y="0" type="line"/>
      <point x="562" y="700" type="line"/>
      <point x="468" y="700" type="line"/>
      <point x="468" y="406" type="line"/>
      <point x="164" y="406" type="line"/>
      <point x="164" y="700" type="line"/>
      <point x="70" y="700" type="line"/>
      <point x="70" y="0" type="line"/>
    </contour>
  </outline>
</glyph>
<glyph name="I" format="1">
  <advance width="234"/>
  <unicode hex="0049"/>
  <outline>
    <contour>
      <point x="164" y="0" type="line"/>
      <point x="164" y="700" type="line"/>
      <point x="70" y="700" type="line"/>
      <point x="70" y="0" type="line"/>
    </contour>
  </outline>
</glyph>
<glyph name="J" format="1">
  <advance width="383"/>
  <unicode hex="004A"/>
  <outline>
    <contour>
      <point x="224" y="180" type="line"/>
      <point x="224" y="100"/>
      <point x="158" y="88"/>
      <point x="114" y="88" type="curve" smooth="yes"/>
      <point x="35" y="88" type="line"/>
      <point x="35" y="0" type="line"/>
      <point x="101" y="0" type="line" smooth="yes"/>
      <point x="163" y="0"/>
      <point x="223" y="3"/>
      <point x="271" y="48" type="curve" smooth="yes"/>
      <point x="294" y="70"/>
      <point x="318" y="107"/>
      <point x="318" y="167" type="curve" smooth="yes"/>
      <point x="318" y="700" type="line"/>
      <point x="38" y="700" type="line"/>
      <point x="38" y="612" type="line"/>
      <point x="224" y="612" type="line"/>
      <point x="224" y="302" type="line"/>
    </contour>
  </outline>
  <note>&#x425;&#x430;&#x440;&#x438;&#x43a; &#x43d;&#x430;&#x434;&#x442;&#x43e; &#x440;&#x43e;&#x437;&#x448;&#x438;&#x440;&#x438;&#x432;</note>
</glyph>
<glyph name="K" format="1">
  <advance width="548"/>
  <unicode hex="004B"/>
  <outline>
    <contour>
      <point x="164" y="700" type="line"/>
      <point x="70" y="700" type="line"/>
      <point x="70" y="0" type="line"/>
      <point x="164" y="0" type="line"/>
    </contour>
    <contour>
      <point x="498" y="125" type="line" smooth="yes"/>
      <point x="498" y="322"/>
      <point x="387" y="422"/>
      <point x="155" y="415" type="curve"/>
      <point x="155" y="332" type="line"/>
      <point x="353" y="332"/>
      <point x="402" y="274"/>
      <point x="402" y="125" type="curve" smooth="yes"/>
      <point x="402" y="0" type="line"/>
      <point x="498" y="0" type="line"/>
    </contour>
    <contour>
      <point x="393" y="700" type="line"/>
      <point x="235" y="375" type="line"/>
      <point x="321" y="355" type="line"/>
      <point x="495" y="700" type="line"/>
    </contour>
  </outline>
</glyph>
<glyph name="L" format="1">
  <advance width="482"/>
  <unicode hex="004C"/>
  <outline>
    <contour>
      <point x="457" y="88" type="line"/>
      <point x="286" y="88" type="line" smooth="yes"/>
      <point x="243" y="88"/>
      <point x="197" y="102"/>
      <point x="177" y="149" type="curve" smooth="yes"/>
      <point x="165" y="179"/>
      <point x="164" y="216"/>
      <point x="164" y="240" type="curve" smooth="yes"/>
      <point x="164" y="700" type="line"/>
      <point x="70" y="700" type="line"/>
      <point x="70" y="238" type="line" smooth="yes"/>
      <point x="70" y="174"/>
      <point x="73" y="96"/>
      <point x="129" y="45" type="curve" smooth="yes"/>
      <point x="180" y="0"/>
      <point x="252" y="0"/>
      <point x="311" y="0" type="curve"/>
      <point x="457" y="0" type="line"/>
    </contour>
  </outline>
</glyph>
<glyph name="M" format="1">
  <advance width="796"/>
  <unicode hex="004D"/>
  <outline>
    <contour>
      <point x="395" y="217" type="line"/>
      <point x="313" y="526" type="line" smooth="yes"/>
      <point x="277" y="660"/>
      <point x="213" y="700"/>
      <point x="70" y="700" type="curve"/>
      <point x="70" y="0" type="line" name="hr01"/>
      <point x="164" y="0" type="line"/>
      <point x="164" y="594" type="line"/>
      <point x="201" y="579"/>
      <point x="213" y="553"/>
      <point x="228" y="503" type="curve" smooth="yes"/>
      <point x="354" y="74" type="line"/>
      <point x="442" y="74" type="line"/>
      <point x="567" y="503" type="line" smooth="yes"/>
      <point x="582" y="553"/>
      <point x="595" y="579"/>
      <point x="632" y="594" type="curve"/>
      <point x="632" y="0" type="line"/>
      <point x="726" y="0" type="line"/>
      <point x="726" y="700" type="line"/>
      <point x="583" y="700"/>
      <point x="519" y="662"/>
      <point x="483" y="526" type="curve" smooth="yes"/>
      <point x="401" y="217" type="line"/>
    </contour>
  </outline>
</glyph>
<glyph name="N" format="1">
  <advance width="628"/>
  <unicode hex="004E"/>
  <outline>
    <contour>
      <point x="164" y="0" type="line"/>
      <point x="164" y="612" type="line"/>
      <point x="318" y="612" type="line"/>
      <point x="400" y="612"/>
      <point x="469" y="579"/>
      <point x="469" y="483" type="curve" smooth="yes"/>
      <point x="469" y="0" type="line"/>
      <point x="563" y="0" type="line"/>
      <point x="563" y="470" type="line" smooth="yes"/>
      <point x="563" y="631"/>
      <point x="480" y="700"/>
      <point x="317" y="700" type="curve"/>
      <point x="70" y="700" type="line"/>
      <point x="70" y="0" type="line"/>
    </contour>
  </outline>
</glyph>
<glyph name="O" format="1">
  <advance width="778"/>
  <unicode hex="004F"/>
  <outline>
    <contour>
      <point x="389" y="78" type="curve" smooth="yes"/>
      <point x="241" y="78"/>
      <point x="163" y="201"/>
      <point x="161" y="347" type="curve"/>
      <point x="163" y="493"/>
      <point x="241" y="622"/>
      <point x="389" y="622" type="curve"/>
      <point x="537" y="622"/>
      <point x="615" y="493"/>
      <point x="617" y="347" type="curve"/>
      <point x="615" y="201"/>
      <point x="537" y="78"/>
    </contour>
    <contour>
      <point x="389" y="-10" type="curve" smooth="yes"/>
      <point x="585" y="-10"/>
      <point x="716" y="124"/>
      <point x="718" y="347" type="curve"/>
      <point x="716" y="570"/>
      <point x="585" y="710"/>
      <point x="389" y="710" type="curve"/>
      <point x="193" y="710"/>
      <point x="62" y="570"/>
      <point x="60" y="347" type="curve"/>
      <point x="62" y="124"/>
      <point x="193" y="-10"/>
    </contour>
  </outline>
</glyph>
<glyph name="P" format="1">
  <advance width="567"/>
  <unicode hex="0050"/>
  <outline>
    <contour>
      <point x="159" y="0" type="line"/>
      <point x="159" y="464" type="line" smooth="yes"/>
      <point x="159" y="556"/>
      <point x="209" y="622"/>
      <point x="296" y="622" type="curve" smooth="yes"/>
      <point x="388" y="622"/>
      <point x="433" y="561"/>
      <point x="433" y="485" type="curve" smooth="yes"/>
      <point x="433" y="406"/>
      <point x="381" y="343"/>
      <point x="289" y="343" type="curve" smooth="yes"/>
      <point x="203" y="343" type="line"/>
      <point x="203" y="255" type="line"/>
      <point x="278" y="255" type="line" smooth="yes"/>
      <point x="396" y="255"/>
      <point x="532" y="311"/>
      <point x="532" y="483" type="curve" smooth="yes"/>
      <point x="532" y="609"/>
      <point x="452" y="710"/>
      <point x="297" y="710" type="curve" smooth="yes"/>
      <point x="159" y="710"/>
      <point x="65" y="620"/>
      <point x="65" y="460" type="curve" smooth="yes"/>
      <point x="65" y="0" type="line"/>
    </contour>
  </outline>
</glyph>
<glyph name="Q" format="1">
  <advance width="778"/>
  <unicode hex="0051"/>
  <outline>
    <component base="O"/>
    <contour>
      <point x="653" y="-60" type="line"/>
      <point x="564" y="-49"/>
      <point x="501" y="39"/>
      <point x="408" y="74" type="curve"/>
      <point x="367" y="-5" type="line"/>
      <point x="460" y="-32"/>
      <point x="506" y="-146"/>
      <point x="651" y="-149" type="curve"/>
      <point x="722" y="-149" type="line"/>
      <point x="722" y="-60" type="line"/>
    </contour>
  </outline>
</glyph>
<glyph name="R" format="1">
  <advance width="574"/>
  <unicode hex="0052"/>
  <outline>
    <contour>
      <point x="65" y="0" type="line"/>
      <point x="159" y="0" type="line"/>
      <point x="159" y="455" type="line" smooth="yes"/>
      <point x="159" y="578"/>
      <point x="209" y="622"/>
      <point x="297" y="622" type="curve" smooth="yes"/>
      <point x="376" y="622"/>
      <point x="430" y="578"/>
      <point x="430" y="509" type="curve" smooth="yes"/>
      <point x="430" y="452"/>
      <point x="403" y="377"/>
      <point x="260" y="377" type="curve" smooth="yes"/>
      <point x="203" y="377" type="line"/>
      <point x="203" y="289" type="line"/>
      <point x="257" y="289" type="line" smooth="yes"/>
      <point x="367" y="289"/>
      <point x="424" y="227"/>
      <point x="424" y="128" type="curve" smooth="yes"/>
      <point x="424" y="0" type="line"/>
      <point x="518" y="0" type="line"/>
      <point x="518" y="75" type="line" smooth="yes"/>
      <point x="518" y="237"/>
      <point x="494" y="295"/>
      <point x="392" y="334" type="curve"/>
      <point x="392" y="338" type="line"/>
      <point x="492" y="370"/>
      <point x="524" y="423"/>
      <point x="524" y="504" type="curve" smooth="yes"/>
      <point x="524" y="633"/>
      <point x="444" y="710"/>
      <point x="294" y="710" type="curve" smooth="yes"/>
      <point x="147" y="710"/>
      <point x="65" y="615"/>
      <point x="65" y="455" type="curve" smooth="yes"/>
    </contour>
  </outline>
</glyph>
<glyph name="S" format="1">
  <advance width="504"/>
  <unicode hex="0053"/>
  <outline>
    <contour>
      <point x="423" y="700" type="line"/>
      <point x="240" y="700" type="line" smooth="yes"/>
      <point x="132" y="700"/>
      <point x="45" y="650"/>
      <point x="45" y="533" type="curve" smooth="yes"/>
      <point x="45" y="419"/>
      <point x="126" y="366"/>
      <point x="202" y="337" type="curve" smooth="yes"/>
      <point x="285" y="305"/>
      <point x="365" y="279"/>
      <point x="365" y="200" type="curve" smooth="yes"/>
      <point x="365" y="123"/>
      <point x="296" y="88"/>
      <point x="211" y="88" type="curve" smooth="yes"/>
      <point x="58" y="88" type="line"/>
      <point x="58" y="0" type="line"/>
      <point x="214" y="0" type="line" smooth="yes"/>
      <point x="227" y="0"/>
      <point x="240" y="0"/>
      <point x="254" y="1" type="curve" smooth="yes"/>
      <point x="336" y="4"/>
      <point x="464" y="57"/>
      <point x="464" y="199" type="curve" smooth="yes"/>
      <point x="464" y="325"/>
      <point x="389" y="368"/>
      <point x="310" y="397" type="curve" smooth="yes"/>
      <point x="228" y="427"/>
      <point x="145" y="465"/>
      <point x="145" y="530" type="curve" smooth="yes"/>
      <point x="145" y="590"/>
      <point x="182" y="612"/>
      <point x="246" y="612" type="curve" smooth="yes"/>
      <point x="423" y="612" type="line"/>
    </contour>
  </outline>
</glyph>
<glyph name="T" format="1">
  <advance width="490"/>
  <unicode hex="0054"/>
  <outline>
    <contour>
      <point x="25" y="612" type="line"/>
      <point x="198" y="612" type="line"/>
      <point x="198" y="0" type="line"/>
      <point x="292" y="0" type="line"/>
      <point x="292" y="612" type="line"/>
      <point x="465" y="612" type="line"/>
      <point x="465" y="700" type="line"/>
      <point x="25" y="700" type="line"/>
    </contour>
  </outline>
</glyph>
<glyph name="U" format="1">
  <advance width="623"/>
  <unicode hex="0055"/>
  <outline>
    <contour>
      <point x="464" y="700" type="line"/>
      <point x="464" y="207" type="line" smooth="yes"/>
      <point x="464" y="111"/>
      <point x="395" y="78"/>
      <point x="310" y="78" type="curve" smooth="yes"/>
      <point x="228" y="78"/>
      <point x="159" y="111"/>
      <point x="159" y="207" type="curve" smooth="yes"/>
      <point x="159" y="700" type="line"/>
      <point x="65" y="700" type="line"/>
      <point x="65" y="220" type="line" smooth="yes"/>
      <point x="65" y="59"/>
      <point x="148" y="-10"/>
      <point x="311" y="-10" type="curve" smooth="yes"/>
      <point x="474" y="-10"/>
      <point x="558" y="59"/>
      <point x="558" y="220" type="curve" smooth="yes"/>
      <point x="558" y="700" type="line"/>
    </contour>
  </outline>
</glyph>
<glyph name="V" format="1">
  <advance width="603"/>
  <unicode hex="0056"/>
  <outline>
    <contour>
      <point x="548" y="700" type="line"/>
      <point x="454" y="700" type="line"/>
      <point x="454" y="366" type="line" smooth="yes"/>
      <point x="454" y="242"/>
      <point x="420" y="150"/>
      <point x="303" y="83" type="curve"/>
      <point x="183" y="149"/>
      <point x="151" y="241"/>
      <point x="151" y="366" type="curve" smooth="yes"/>
      <point x="151" y="700" type="line"/>
      <point x="55" y="700" type="line"/>
      <point x="55" y="354" type="line"/>
      <point x="55" y="180"/>
      <point x="139" y="45"/>
      <point x="302" y="-20" type="curve"/>
      <point x="467" y="47"/>
      <point x="548" y="186"/>
      <point x="548" y="363" type="curve" smooth="yes"/>
    </contour>
  </outline>
</glyph>
<glyph name="W" format="1">
  <advance width="826"/>
  <unicode hex="0057"/>
  <outline>
    <contour>
      <point x="576" y="90" type="curve"/>
      <point x="545" y="116"/>
      <point x="518" y="149"/>
      <point x="458" y="480" type="curve"/>
      <point x="368" y="480" type="line"/>
      <point x="341" y="252"/>
      <point x="318" y="149"/>
      <point x="250" y="90" type="curve"/>
      <point x="198" y="142"/>
      <point x="171" y="214"/>
      <point x="165" y="328" type="curve" smooth="yes"/>
      <point x="145" y="700" type="line"/>
      <point x="55" y="700" type="line"/>
      <point x="75" y="324" type="line" smooth="yes"/>
      <point x="84" y="150"/>
      <point x="129" y="55"/>
      <point x="252" y="-20" type="curve"/>
      <point x="374" y="78"/>
      <point x="401" y="152"/>
      <point x="411" y="347" type="curve"/>
      <point x="415" y="347" type="line"/>
      <point x="434" y="185"/>
      <point x="457" y="63"/>
      <point x="574" y="-20" type="curve"/>
      <point x="697" y="55"/>
      <point x="742" y="150"/>
      <point x="751" y="324" type="curve" smooth="yes"/>
      <point x="771" y="700" type="line"/>
      <point x="681" y="700" type="line"/>
      <point x="661" y="328" type="line" smooth="yes"/>
      <point x="655" y="214"/>
      <point x="628" y="142"/>
    </contour>
  </outline>
  <note>&#x427;&#x438; &#x43d;&#x435; &#x442;&#x440;&#x435;&#x431;&#x430; &#x432;&#x435;&#x440;&#x445; &#x437;&#x430;&#x433;&#x43e;&#x441;&#x442;&#x440;&#x438;&#x442;&#x438;?</note>
</glyph>
<glyph name="X" format="1">
  <advance width="563"/>
  <unicode hex="0058"/>
  <outline>
    <contour>
      <point x="46" y="0" type="line"/>
      <point x="140" y="0" type="line"/>
      <point x="140" y="44" type="line" smooth="yes"/>
      <point x="140" y="160"/>
      <point x="164" y="262"/>
      <point x="281" y="325" type="curve"/>
      <point x="401" y="263"/>
      <point x="423" y="161"/>
      <point x="423" y="44" type="curve" smooth="yes"/>
      <point x="423" y="0" type="line"/>
      <point x="519" y="0" type="line"/>
      <point x="519" y="53" type="line" smooth="yes"/>
      <point x="519" y="217"/>
      <point x="445" y="346"/>
      <point x="282" y="407" type="curve"/>
      <point x="117" y="344"/>
      <point x="46" y="211"/>
      <point x="46" y="44" type="curve" smooth="yes"/>
    </contour>
    <contour>
      <point x="46" y="688" type="line" smooth="yes"/>
      <point x="46" y="521"/>
      <point x="117" y="388"/>
      <point x="282" y="325" type="curve"/>
      <point x="445" y="386"/>
      <point x="519" y="515"/>
      <point x="519" y="679" type="curve" smooth="yes"/>
      <point x="519" y="700" type="line"/>
      <point x="423" y="700" type="line"/>
      <point x="423" y="688" type="line" smooth="yes"/>
      <point x="423" y="571"/>
      <point x="401" y="469"/>
      <point x="281" y="407" type="curve"/>
      <point x="164" y="470"/>
      <point x="140" y="572"/>
      <point x="140" y="688" type="curve" smooth="yes"/>
      <point x="140" y="700" type="line"/>
      <point x="46" y="700" type="line"/>
    </contour>
  </outline>
  <note>&#x41f;&#x440;&#x43e;&#x441;&#x442;&#x43e; &#x43f;&#x43e;&#x432;&#x435;&#x440;&#x43d;&#x443;&#x432; &#x43d;&#x430; 180 &#x433;&#x440;&#x430;&#x434;
&#x411;&#x43e; &#x456;&#x43d;&#x430;&#x43a;&#x448;&#x435; &#x43d;&#x435;&#x441;&#x442;&#x456;&#x439;&#x43a;&#x430; &#x43a;&#x43e;&#x43d;&#x441;&#x442;&#x440;&#x443;&#x43a;&#x446;&#x456;&#x44f;</note>
</glyph>
<glyph name="Y" format="1">
  <advance width="543"/>
  <unicode hex="0059"/>
  <outline>
    <contour>
      <point x="498" y="700" type="line"/>
      <point x="404" y="700" type="line"/>
      <point x="404" y="644" type="line" smooth="yes"/>
      <point x="404" y="520"/>
      <point x="374" y="419"/>
      <point x="273" y="352" type="curve"/>
      <point x="169" y="418"/>
      <point x="141" y="519"/>
      <point x="141" y="644" type="curve" smooth="yes"/>
      <point x="141" y="700" type="line"/>
      <point x="45" y="700" type="line"/>
      <point x="45" y="635" type="line" smooth="yes"/>
      <point x="45" y="461"/>
      <point x="123" y="311"/>
      <point x="272" y="246" type="curve"/>
      <point x="423" y="313"/>
      <point x="498" y="467"/>
      <point x="498" y="644" type="curve" smooth="yes"/>
    </contour>
    <contour>
      <point x="321" y="352" type="line"/>
      <point x="227" y="352" type="line"/>
      <point x="227" y="0" type="line"/>
      <point x="321" y="0" type="line"/>
    </contour>
  </outline>
</glyph>
<glyph name="Z" format="1">
  <advance width="521"/>
  <unicode hex="005A"/>
  <outline>
    <contour>
      <point x="446" y="612" type="line"/>
      <point x="446" y="700" type="line"/>
      <point x="45" y="700" type="line"/>
      <point x="45" y="612" type="line"/>
    </contour>
    <contour>
      <point x="64" y="0" type="line"/>
      <point x="476" y="0" type="line"/>
      <point x="476" y="88" type="line"/>
      <point x="64" y="88" type="line"/>
    </contour>
    <contour>
      <point x="474" y="700" type="line"/>
      <point x="384" y="700" type="line"/>
      <point x="384" y="688" type="line" smooth="yes"/>
      <point x="384" y="539"/>
      <point x="295" y="452"/>
      <point x="204" y="366" type="curve" smooth="yes"/>
      <point x="118" y="285"/>
      <point x="45" y="194"/>
      <point x="45" y="44" type="curve" smooth="yes"/>
      <point x="45" y="0" type="line"/>
      <point x="141" y="0" type="line"/>
      <point x="141" y="44" type="line" smooth="yes"/>
      <point x="141" y="162"/>
      <point x="190" y="229"/>
      <point x="279" y="305" type="curve" smooth="yes"/>
      <point x="350" y="366"/>
      <point x="419" y="438"/>
      <point x="455" y="538" type="curve" smooth="yes"/>
      <point x="470" y="579"/>
      <point x="474" y="625"/>
      <point x="474" y="679" type="curve" smooth="yes"/>
    </contour>
  </outline>
</glyph>
<glyph name="bracketleft" format="1">
  <advance width="294"/>
  <unicode hex="005B"/>
  <outline>
    <contour>
      <point x="249" y="-126" type="line"/>
      <point x="249" y="-66" type="line"/>
      <point x="165" y="-66" type="line"/>
      <point x="165" y="690" type="line"/>
      <point x="249" y="690" type="line"/>
      <point x="249" y="750" type="line"/>
      <point x="75" y="750" type="line"/>
      <point x="75" y="-126" type="line"/>
    </contour>
  </outline>
</glyph>
<glyph name="backslash" format="1">
  <advance width="352"/>
  <unicode hex="005C"/>
  <outline>
    <contour>
      <point x="-30" y="710" type="line"/>
      <point x="294" y="-10" type="line"/>
      <point x="382" y="-10" type="line"/>
      <point x="58" y="710" type="line"/>
    </contour>
  </outline>
</glyph>
<glyph name="bracketright" format="1">
  <advance width="294"/>
  <unicode hex="005D"/>
  <outline>
    <contour>
      <point x="219" y="-126" type="line"/>
      <point x="219" y="750" type="line"/>
      <point x="45" y="750" type="line"/>
      <point x="45" y="690" type="line"/>
      <point x="129" y="690" type="line"/>
      <point x="129" y="-66" type="line"/>
      <point x="45" y="-66" type="line"/>
      <point x="45" y="-126" type="line"/>
    </contour>
  </outline>
</glyph>
<glyph name="asciicircum" format="1">
  <advance width="578"/>
  <unicode hex="005E"/>
  <outline>
    <contour>
      <point x="289" y="614" type="line"/>
      <point x="449" y="326" type="line"/>
      <point x="533" y="326" type="line"/>
      <point x="327" y="700" type="line"/>
      <point x="251" y="700" type="line"/>
      <point x="45" y="326" type="line"/>
      <point x="129" y="326" type="line"/>
    </contour>
  </outline>
</glyph>
<glyph name="underscore" format="1">
  <advance width="566"/>
  <unicode hex="005F"/>
  <outline>
    <contour>
      <point x="533" y="-125" type="line"/>
      <point x="533" y="-55" type="line"/>
      <point x="33" y="-55" type="line"/>
      <point x="33" y="-125" type="line"/>
    </contour>
  </outline>
</glyph>
<glyph name="grave" format="1">
  <advance width="250"/>
  <unicode hex="0060"/>
  <outline>
    <contour>
      <point x="215" y="567" type="line"/>
      <point x="97" y="715" type="line"/>
      <point x="35" y="653" type="line"/>
      <point x="163" y="525" type="line"/>
    </contour>
  </outline>
</glyph>
<glyph name="a" format="1">
  <advance width="503"/>
  <unicode hex="0061"/>
  <outline>
    <contour>
      <point x="327" y="282" type="line"/>
      <point x="295" y="292"/>
      <point x="265" y="298"/>
      <point x="231" y="298" type="curve" smooth="yes"/>
      <point x="131" y="298"/>
      <point x="45" y="252"/>
      <point x="45" y="149" type="curve" smooth="yes"/>
      <point x="45" y="49"/>
      <point x="121" y="0"/>
      <point x="230" y="0" type="curve" smooth="yes"/>
      <point x="453" y="0" type="line"/>
      <point x="453" y="294" type="line" smooth="yes"/>
      <point x="453" y="415"/>
      <point x="380" y="480"/>
      <point x="252" y="480" type="curve" smooth="yes"/>
      <point x="87" y="480" type="line"/>
      <point x="87" y="396" type="line"/>
      <point x="247" y="396" type="line" smooth="yes"/>
      <point x="319" y="396"/>
      <point x="365" y="361"/>
      <point x="365" y="275" type="curve" smooth="yes"/>
      <point x="365" y="84" type="line"/>
      <point x="233" y="84" type="line" smooth="yes"/>
      <point x="192" y="84"/>
      <point x="135" y="95"/>
      <point x="135" y="150" type="curve" smooth="yes"/>
      <point x="135" y="195"/>
      <point x="172" y="221"/>
      <point x="234" y="221" type="curve" smooth="yes"/>
      <point x="262" y="221"/>
      <point x="294" y="217"/>
      <point x="327" y="192" type="curve"/>
    </contour>
  </outline>
</glyph>
<glyph name="b" format="1">
  <advance width="595"/>
  <unicode hex="0062"/>
  <outline>
    <contour>
      <point x="60" y="700" type="line"/>
      <point x="60" y="240" type="line"/>
      <point x="60" y="86"/>
      <point x="156" y="-10"/>
      <point x="295" y="-10" type="curve" smooth="yes"/>
      <point x="434" y="-10"/>
      <point x="550" y="74"/>
      <point x="550" y="240" type="curve" smooth="yes"/>
      <point x="550" y="394"/>
      <point x="444" y="490"/>
      <point x="305" y="490" type="curve" smooth="yes"/>
      <point x="261" y="490"/>
      <point x="221" y="479"/>
      <point x="186" y="460" type="curve"/>
      <point x="186" y="370" type="line"/>
      <point x="217" y="394"/>
      <point x="263" y="406"/>
      <point x="295" y="406" type="curve" smooth="yes"/>
      <point x="391" y="406"/>
      <point x="460" y="345"/>
      <point x="460" y="240" type="curve" smooth="yes"/>
      <point x="460" y="129"/>
      <point x="398" y="74"/>
      <point x="302" y="74" type="curve" smooth="yes"/>
      <point x="209" y="74"/>
      <point x="150" y="133"/>
      <point x="150" y="240" type="curve" smooth="yes"/>
      <point x="150" y="700" type="line"/>
    </contour>
  </outline>
</glyph>
<glyph name="c" format="1">
  <advance width="473"/>
  <unicode hex="0063"/>
  <outline>
    <contour>
      <point x="388" y="105" type="line"/>
      <point x="362" y="85"/>
      <point x="328" y="74"/>
      <point x="290" y="74" type="curve" smooth="yes"/>
      <point x="197" y="74"/>
      <point x="140" y="141"/>
      <point x="140" y="240" type="curve" smooth="yes"/>
      <point x="140" y="339"/>
      <point x="197" y="406"/>
      <point x="290" y="406" type="curve" smooth="yes"/>
      <point x="329" y="406"/>
      <point x="363" y="394"/>
      <point x="389" y="374" type="curve"/>
      <point x="448" y="434" type="line"/>
      <point x="405" y="469"/>
      <point x="350" y="490"/>
      <point x="290" y="490" type="curve" smooth="yes"/>
      <point x="151" y="490"/>
      <point x="45" y="379"/>
      <point x="45" y="240" type="curve" smooth="yes"/>
      <point x="45" y="101"/>
      <point x="139" y="-10"/>
      <point x="290" y="-10" type="curve" smooth="yes"/>
      <point x="350" y="-10"/>
      <point x="405" y="11"/>
      <point x="448" y="46" type="curve"/>
    </contour>
  </outline>
</glyph>
<glyph name="d" format="1">
  <advance width="585"/>
  <unicode hex="0064"/>
  <outline>
    <contour>
      <point x="435" y="700" type="line"/>
      <point x="435" y="84" type="line"/>
      <point x="290" y="84" type="line" smooth="yes"/>
      <point x="194" y="84"/>
      <point x="140" y="149"/>
      <point x="140" y="245" type="curve" smooth="yes"/>
      <point x="140" y="343"/>
      <point x="206" y="406"/>
      <point x="283" y="406" type="curve" smooth="yes"/>
      <point x="323" y="406"/>
      <point x="364" y="395"/>
      <point x="399" y="370" type="curve"/>
      <point x="399" y="460" type="line"/>
      <point x="361" y="481"/>
      <point x="321" y="490"/>
      <point x="283" y="490" type="curve" smooth="yes"/>
      <point x="156" y="490"/>
      <point x="45" y="386"/>
      <point x="45" y="245" type="curve" smooth="yes"/>
      <point x="45" y="106"/>
      <point x="143" y="0"/>
      <point x="290" y="0" type="curve" smooth="yes"/>
      <point x="525" y="0" type="line"/>
      <point x="525" y="700" type="line"/>
    </contour>
  </outline>
</glyph>
<glyph name="e" format="1">
  <advance width="505"/>
  <unicode hex="0065"/>
  <outline>
    <contour>
      <point x="295" y="490" type="curve" smooth="yes"/>
      <point x="136" y="495"/>
      <point x="45" y="383"/>
      <point x="45" y="230" type="curve" smooth="yes"/>
      <point x="45" y="91"/>
      <point x="141" y="-10"/>
      <point x="295" y="-10" type="curve" smooth="yes"/>
      <point x="355" y="-10"/>
      <point x="415" y="11"/>
      <point x="458" y="46" type="curve"/>
      <point x="398" y="105" type="line"/>
      <point x="372" y="85"/>
      <point x="333" y="74"/>
      <point x="295" y="74" type="curve" smooth="yes"/>
      <point x="202" y="74"/>
      <point x="138" y="141"/>
      <point x="138" y="240" type="curve" smooth="yes"/>
      <point x="138" y="328"/>
      <point x="191" y="410"/>
      <point x="290" y="410" type="curve"/>
      <point x="335" y="410"/>
      <point x="372" y="392"/>
      <point x="372" y="348" type="curve" smooth="yes"/>
      <point x="372" y="286"/>
      <point x="344" y="259"/>
      <point x="253" y="259" type="curve"/>
      <point x="205" y="259" type="line"/>
      <point x="205" y="182" type="line"/>
      <point x="246" y="182" type="line"/>
      <point x="378" y="182"/>
      <point x="465" y="229"/>
      <point x="465" y="349" type="curve" smooth="yes"/>
      <point x="465" y="448"/>
      <point x="398" y="486"/>
    </contour>
  </outline>
</glyph>
<glyph name="f" format="1">
  <advance width="316"/>
  <unicode hex="0066"/>
  <outline>
    <contour>
      <point x="296" y="396" type="line"/>
      <point x="296" y="480" type="line"/>
      <point x="181" y="480" type="line"/>
      <point x="181" y="579"/>
      <point x="243" y="617"/>
      <point x="336" y="617" type="curve"/>
      <point x="336" y="701" type="line"/>
      <point x="197" y="701"/>
      <point x="91" y="619"/>
      <point x="91" y="480" type="curve"/>
      <point x="63" y="480" type="line"/>
      <point x="23" y="396" type="line"/>
      <point x="91" y="396" type="line"/>
      <point x="91" y="0" type="line"/>
      <point x="181" y="0" type="line"/>
      <point x="181" y="396" type="line"/>
    </contour>
  </outline>
</glyph>
<glyph name="g" format="1">
  <advance width="590"/>
  <unicode hex="0067"/>
  <outline>
    <contour>
      <point x="283" y="0" type="curve" smooth="yes"/>
      <point x="321" y="0"/>
      <point x="361" y="9"/>
      <point x="399" y="30" type="curve"/>
      <point x="399" y="120" type="line"/>
      <point x="364" y="95"/>
      <point x="323" y="84"/>
      <point x="283" y="84" type="curve" smooth="yes"/>
      <point x="206" y="84"/>
      <point x="135" y="137"/>
      <point x="135" y="235" type="curve" smooth="yes"/>
      <point x="135" y="331"/>
      <point x="194" y="396"/>
      <point x="290" y="396" type="curve" smooth="yes"/>
      <point x="435" y="396" type="line"/>
      <point x="435" y="4" type="line" smooth="yes"/>
      <point x="435" y="-72"/>
      <point x="394" y="-107"/>
      <point x="367" y="-122" type="curve" smooth="yes"/>
      <point x="342" y="-137"/>
      <point x="306" y="-144"/>
      <point x="242" y="-144" type="curve" smooth="yes"/>
      <point x="139" y="-144" type="line"/>
      <point x="139" y="-228" type="line"/>
      <point x="251" y="-228" type="line" smooth="yes"/>
      <point x="294" y="-228"/>
      <point x="348" y="-224"/>
      <point x="402" y="-196" type="curve"/>
      <point x="452" y="-165"/>
      <point x="525" y="-113"/>
      <point x="525" y="14" type="curve" smooth="yes"/>
      <point x="525" y="480" type="line"/>
      <point x="290" y="480" type="line" smooth="yes"/>
      <point x="151" y="480"/>
      <point x="45" y="374"/>
      <point x="45" y="235" type="curve" smooth="yes"/>
      <point x="45" y="94"/>
      <point x="156" y="0"/>
    </contour>
  </outline>
</glyph>
<glyph name="h" format="1">
  <advance width="518"/>
  <unicode hex="0068"/>
  <outline>
    <contour>
      <point x="148" y="700" type="line"/>
      <point x="60" y="700" type="line"/>
      <point x="60" y="0" type="line"/>
      <point x="148" y="0" type="line"/>
      <point x="148" y="396" type="line"/>
      <point x="262" y="396" type="line" smooth="yes"/>
      <point x="366" y="396"/>
      <point x="370" y="314"/>
      <point x="370" y="270" type="curve" smooth="yes"/>
      <point x="370" y="0" type="line"/>
      <point x="458" y="0" type="line"/>
      <point x="458" y="271" type="line" smooth="yes"/>
      <point x="458" y="341"/>
      <point x="455" y="404"/>
      <point x="392" y="447" type="curve" smooth="yes"/>
      <point x="347" y="478"/>
      <point x="284" y="480"/>
      <point x="233" y="480" type="curve" smooth="yes"/>
      <point x="148" y="480" type="line"/>
    </contour>
  </outline>
</glyph>
<glyph name="i" format="1">
  <advance width="264"/>
  <unicode hex="0069"/>
  <outline>
    <contour>
      <point x="190" y="0" type="line"/>
      <point x="190" y="480" type="line"/>
      <point x="60" y="480" type="line"/>
      <point x="20" y="396" type="line"/>
      <point x="102" y="396" type="line"/>
      <point x="102" y="0" type="line"/>
    </contour>
    <contour>
      <point x="85" y="617" type="curve" smooth="yes"/>
      <point x="85" y="594"/>
      <point x="99" y="564"/>
      <point x="138" y="564" type="curve" smooth="yes"/>
      <point x="177" y="564"/>
      <point x="191" y="594"/>
      <point x="191" y="617" type="curve" smooth="yes"/>
      <point x="191" y="640"/>
      <point x="177" y="670"/>
      <point x="138" y="670" type="curve" smooth="yes"/>
      <point x="99" y="670"/>
      <point x="85" y="640"/>
    </contour>
  </outline>
</glyph>
<glyph name="j" format="1">
  <advance width="238"/>
  <unicode hex="006A"/>
  <outline>
    <contour>
      <point x="164" y="480" type="line"/>
      <point x="34" y="480" type="line"/>
      <point x="-6" y="396" type="line"/>
      <point x="76" y="396" type="line"/>
      <point x="76" y="-38" type="line" smooth="yes"/>
      <point x="76" y="-137"/>
      <point x="23" y="-144"/>
      <point x="-40" y="-144" type="curve"/>
      <point x="-40" y="-228" type="line"/>
      <point x="109" y="-228"/>
      <point x="164" y="-177"/>
      <point x="164" y="-38" type="curve" smooth="yes"/>
    </contour>
    <contour>
      <point x="59" y="617" type="curve" smooth="yes"/>
      <point x="59" y="594"/>
      <point x="73" y="564"/>
      <point x="112" y="564" type="curve" smooth="yes"/>
      <point x="151" y="564"/>
      <point x="165" y="594"/>
      <point x="165" y="617" type="curve" smooth="yes"/>
      <point x="165" y="640"/>
      <point x="151" y="670"/>
      <point x="112" y="670" type="curve" smooth="yes"/>
      <point x="73" y="670"/>
      <point x="59" y="640"/>
    </contour>
  </outline>
</glyph>
<glyph name="k" format="1">
  <advance width="480"/>
  <unicode hex="006B"/>
  <outline>
    <contour>
      <point x="336" y="480" type="line"/>
      <point x="232" y="289" type="line"/>
      <point x="204" y="293"/>
      <point x="176" y="293"/>
      <point x="148" y="289" type="curve"/>
      <point x="148" y="700" type="line"/>
      <point x="60" y="700" type="line"/>
      <point x="60" y="0" type="line"/>
      <point x="148" y="0" type="line"/>
      <point x="148" y="210" type="line"/>
      <point x="164" y="212"/>
      <point x="180" y="213"/>
      <point x="195" y="213" type="curve" smooth="yes"/>
      <point x="292" y="213"/>
      <point x="347" y="162"/>
      <point x="347" y="73" type="curve" smooth="yes"/>
      <point x="347" y="0" type="line"/>
      <point x="435" y="0" type="line"/>
      <point x="435" y="72" type="line" smooth="yes"/>
      <point x="435" y="160"/>
      <point x="409" y="245"/>
      <point x="312" y="271" type="curve"/>
      <point x="433" y="480" type="line"/>
    </contour>
  </outline>
</glyph>
<glyph name="l" format="1">
  <advance width="270"/>
  <unicode hex="006C"/>
  <outline>
    <contour>
      <point x="60" y="190" type="line"/>
      <point x="60" y="51"/>
      <point x="116" y="0"/>
      <point x="265" y="0" type="curve"/>
      <point x="265" y="84" type="line"/>
      <point x="202" y="84"/>
      <point x="150" y="91"/>
      <point x="150" y="190" type="curve" smooth="yes"/>
      <point x="150" y="700" type="line"/>
      <point x="60" y="700" type="line"/>
    </contour>
  </outline>
</glyph>
<glyph name="m" format="1">
  <advance width="749"/>
  <unicode hex="006D"/>
  <outline>
    <contour>
      <point x="65" y="480" type="line"/>
      <point x="65" y="0" type="line" name="hr01"/>
      <point x="153" y="0" type="line"/>
      <point x="153" y="396" type="line"/>
      <point x="328" y="396" type="line"/>
      <point x="328" y="0" type="line"/>
      <point x="416" y="0" type="line"/>
      <point x="416" y="396" type="line"/>
      <point x="457" y="396" type="line" smooth="yes"/>
      <point x="500" y="396"/>
      <point x="530" y="396"/>
      <point x="554" y="383" type="curve" smooth="yes"/>
      <point x="597" y="360"/>
      <point x="601" y="317"/>
      <point x="601" y="280" type="curve" smooth="yes"/>
      <point x="601" y="0" type="line"/>
      <point x="689" y="0" type="line"/>
      <point x="689" y="280" type="line" smooth="yes"/>
      <point x="689" y="344"/>
      <point x="683" y="413"/>
      <point x="619" y="453" type="curve" smooth="yes"/>
      <point x="585" y="475"/>
      <point x="542" y="480"/>
      <point x="506" y="480" type="curve" smooth="yes"/>
    </contour>
  </outline>
  <note>&#x422;&#x443;&#x442; &#x454; &#x441;&#x443;&#x43c;&#x43d;&#x456;&#x432;&#x43d;&#x438;&#x439; &#x43c;&#x43e;&#x43c;&#x435;&#x43d;&#x442;
&#x42f;&#x43a;&#x449;&#x43e; &#x437;&#x430;&#x43b;&#x438;&#x448;&#x438;&#x442;&#x438; &#x432;&#x456;&#x441;&#x442;&#x430;&#x43d;&#x44c; &#x43c;&#x456;&#x436; &#x441;&#x442;&#x435;&#x43c;&#x430;&#x43c;&#x438; &#x43e;&#x434;&#x43d;&#x430;&#x43a;&#x43e;&#x432;&#x43e;&#x44e; &#x442;&#x43e; &#x446;&#x435; &#x432;&#x456;&#x437;&#x443;&#x430;&#x43b;&#x44c;&#x43d;&#x430; &#x43a;&#x430;&#x442;&#x430;&#x441;&#x442;&#x440;&#x43e;&#x444;&#x430; &#x432; &#x434;&#x440;&#x456;&#x431;&#x43d;&#x438;&#x445; &#x43a;&#x435;&#x433;&#x43b;&#x44f;&#x445;;
&#x430; &#x44f;&#x43a;&#x449;&#x43e; &#x43e;&#x442;&#x430;&#x43a; &#x442;&#x440;&#x43e;&#x448;&#x43a;&#x438; &#x437;&#x441;&#x443;&#x43d;&#x443;&#x442;&#x438; &#x442;&#x43e; &#x443; &#x432;&#x435;&#x43b;&#x438;&#x43a;&#x438;&#x445;...</note>
</glyph>
<glyph name="n" format="1">
  <advance width="523"/>
  <unicode hex="006E"/>
  <outline>
    <contour>
      <point x="65" y="480" type="line"/>
      <point x="65" y="0" type="line"/>
      <point x="153" y="0" type="line"/>
      <point x="153" y="396" type="line"/>
      <point x="267" y="396" type="line" smooth="yes"/>
      <point x="371" y="396"/>
      <point x="375" y="314"/>
      <point x="375" y="270" type="curve" smooth="yes"/>
      <point x="375" y="0" type="line"/>
      <point x="463" y="0" type="line"/>
      <point x="463" y="271" type="line" smooth="yes"/>
      <point x="463" y="341"/>
      <point x="460" y="404"/>
      <point x="397" y="447" type="curve" smooth="yes"/>
      <point x="352" y="478"/>
      <point x="289" y="480"/>
      <point x="238" y="480" type="curve" smooth="yes"/>
    </contour>
  </outline>
</glyph>
<glyph name="o" format="1">
  <advance width="580"/>
  <unicode hex="006F"/>
  <outline>
    <contour>
      <point x="290" y="406" type="curve" smooth="yes"/>
      <point x="386" y="406"/>
      <point x="445" y="336"/>
      <point x="445" y="240" type="curve" smooth="yes"/>
      <point x="445" y="144"/>
      <point x="386" y="74"/>
      <point x="290" y="74" type="curve" smooth="yes"/>
      <point x="197" y="74"/>
      <point x="135" y="141"/>
      <point x="135" y="240" type="curve" smooth="yes"/>
      <point x="135" y="339"/>
      <point x="197" y="406"/>
    </contour>
    <contour>
      <point x="290" y="490" type="curve" smooth="yes"/>
      <point x="151" y="490"/>
      <point x="45" y="379"/>
      <point x="45" y="240" type="curve" smooth="yes"/>
      <point x="45" y="101"/>
      <point x="151" y="-10"/>
      <point x="290" y="-10" type="curve" smooth="yes"/>
      <point x="429" y="-10"/>
      <point x="535" y="101"/>
      <point x="535" y="240" type="curve" smooth="yes"/>
      <point x="535" y="379"/>
      <point x="429" y="490"/>
    </contour>
  </outline>
</glyph>
<glyph name="p" format="1">
  <advance width="595"/>
  <unicode hex="0070"/>
  <outline>
    <contour>
      <point x="60" y="-228" type="line"/>
      <point x="150" y="-228" type="line"/>
      <point x="150" y="240" type="line" smooth="yes"/>
      <point x="150" y="339"/>
      <point x="212" y="406"/>
      <point x="305" y="406" type="curve" smooth="yes"/>
      <point x="401" y="406"/>
      <point x="460" y="336"/>
      <point x="460" y="240" type="curve" smooth="yes"/>
      <point x="460" y="144"/>
      <point x="401" y="74"/>
      <point x="302" y="74" type="curve" smooth="yes"/>
      <point x="262" y="74"/>
      <point x="221" y="85"/>
      <point x="186" y="110" type="curve"/>
      <point x="186" y="20" type="line"/>
      <point x="221" y="1"/>
      <point x="261" y="-10"/>
      <point x="305" y="-10" type="curve" smooth="yes"/>
      <point x="444" y="-10"/>
      <point x="550" y="101"/>
      <point x="550" y="240" type="curve" smooth="yes"/>
      <point x="550" y="379"/>
      <point x="444" y="490"/>
      <point x="305" y="490" type="curve" smooth="yes"/>
      <point x="166" y="490"/>
      <point x="60" y="379"/>
      <point x="60" y="240" type="curve"/>
    </contour>
  </outline>
</glyph>
<glyph name="q" format="1">
  <advance width="581"/>
  <unicode hex="0071"/>
  <outline>
    <contour>
      <point x="535" y="240" type="line"/>
      <point x="535" y="412"/>
      <point x="429" y="490"/>
      <point x="290" y="490" type="curve" smooth="yes"/>
      <point x="151" y="490"/>
      <point x="45" y="379"/>
      <point x="45" y="240" type="curve" smooth="yes"/>
      <point x="45" y="101"/>
      <point x="151" y="-10"/>
      <point x="290" y="-10" type="curve" smooth="yes"/>
      <point x="328" y="-10"/>
      <point x="368" y="-1"/>
      <point x="406" y="20" type="curve"/>
      <point x="406" y="110" type="line"/>
      <point x="371" y="85"/>
      <point x="330" y="74"/>
      <point x="290" y="74" type="curve" smooth="yes"/>
      <point x="194" y="74"/>
      <point x="135" y="144"/>
      <point x="135" y="240" type="curve" smooth="yes"/>
      <point x="135" y="336"/>
      <point x="194" y="406"/>
      <point x="290" y="406" type="curve" smooth="yes"/>
      <point x="383" y="406"/>
      <point x="445" y="359"/>
      <point x="445" y="240" type="curve" smooth="yes"/>
      <point x="445" y="-228" type="line"/>
      <point x="535" y="-228" type="line"/>
    </contour>
  </outline>
</glyph>
<glyph name="r" format="1">
  <advance width="346"/>
  <unicode hex="0072"/>
  <outline>
    <contour>
      <point x="45" y="0" type="line"/>
      <point x="133" y="0" type="line"/>
      <point x="133" y="273" type="line" smooth="yes"/>
      <point x="133" y="300"/>
      <point x="133" y="345"/>
      <point x="152" y="369" type="curve"/>
      <point x="175" y="396"/>
      <point x="204" y="396"/>
      <point x="235" y="396" type="curve" smooth="yes"/>
      <point x="341" y="396" type="line"/>
      <point x="341" y="480" type="line"/>
      <point x="253" y="480" type="line" smooth="yes"/>
      <point x="192" y="480"/>
      <point x="133" y="479"/>
      <point x="88" y="432" type="curve" smooth="yes"/>
      <point x="45" y="388"/>
      <point x="45" y="315"/>
      <point x="45" y="273" type="curve" smooth="yes"/>
    </contour>
  </outline>
</glyph>
<glyph name="s" format="1">
  <advance width="453"/>
  <unicode hex="0073"/>
  <outline>
    <contour>
      <point x="393" y="480" type="line"/>
      <point x="216" y="480" type="line" smooth="yes"/>
      <point x="134" y="480"/>
      <point x="55" y="441"/>
      <point x="55" y="354" type="curve" smooth="yes"/>
      <point x="55" y="180"/>
      <point x="323" y="224"/>
      <point x="323" y="134" type="curve" smooth="yes"/>
      <point x="323" y="108"/>
      <point x="303" y="84"/>
      <point x="229" y="84" type="curve" smooth="yes"/>
      <point x="56" y="84" type="line"/>
      <point x="56" y="0" type="line"/>
      <point x="229" y="0" type="line"/>
      <point x="374" y="0"/>
      <point x="413" y="64"/>
      <point x="413" y="134" type="curve" smooth="yes"/>
      <point x="413" y="239"/>
      <point x="339" y="251"/>
      <point x="253" y="280" type="curve"/>
      <point x="204" y="296"/>
      <point x="145" y="306"/>
      <point x="145" y="354" type="curve" smooth="yes"/>
      <point x="145" y="383"/>
      <point x="180" y="396"/>
      <point x="216" y="396" type="curve"/>
      <point x="393" y="396" type="line"/>
    </contour>
  </outline>
</glyph>
<glyph name="t" format="1">
  <advance width="359"/>
  <unicode hex="0074"/>
  <outline>
    <contour>
      <point x="10" y="396" type="line"/>
      <point x="99" y="396" type="line"/>
      <point x="99" y="190" type="line" smooth="yes"/>
      <point x="99" y="51"/>
      <point x="175" y="0"/>
      <point x="324" y="0" type="curve"/>
      <point x="324" y="84" type="line"/>
      <point x="261" y="84"/>
      <point x="189" y="91"/>
      <point x="189" y="190" type="curve" smooth="yes"/>
      <point x="189" y="396" type="line"/>
      <point x="324" y="396" type="line"/>
      <point x="324" y="480" type="line"/>
      <point x="189" y="480" type="line"/>
      <point x="189" y="575" type="line"/>
    </contour>
  </outline>
</glyph>
<glyph name="u" format="1">
  <advance width="523"/>
  <unicode hex="0075"/>
  <outline>
    <contour>
      <point x="458" y="0" type="line"/>
      <point x="458" y="480" type="line"/>
      <point x="370" y="480" type="line"/>
      <point x="370" y="84" type="line"/>
      <point x="256" y="84" type="line" smooth="yes"/>
      <point x="152" y="84"/>
      <point x="148" y="166"/>
      <point x="148" y="210" type="curve" smooth="yes"/>
      <point x="148" y="480" type="line"/>
      <point x="60" y="480" type="line"/>
      <point x="60" y="209" type="line" smooth="yes"/>
      <point x="60" y="139"/>
      <point x="63" y="76"/>
      <point x="126" y="33" type="curve" smooth="yes"/>
      <point x="171" y="2"/>
      <point x="234" y="0"/>
      <point x="285" y="0" type="curve" smooth="yes"/>
    </contour>
  </outline>
</glyph>
<glyph name="v" format="1">
  <advance width="464"/>
  <unicode hex="0076"/>
  <outline>
    <contour>
      <point x="232" y="-11" type="curve"/>
      <point x="348" y="98"/>
      <point x="387" y="199"/>
      <point x="439" y="480" type="curve"/>
      <point x="347" y="480" type="line"/>
      <point x="327" y="355"/>
      <point x="295" y="217"/>
      <point x="232" y="115" type="curve"/>
      <point x="169" y="217"/>
      <point x="137" y="355"/>
      <point x="117" y="480" type="curve"/>
      <point x="25" y="480" type="line"/>
      <point x="77" y="199"/>
      <point x="116" y="98"/>
    </contour>
  </outline>
</glyph>
<glyph name="w" format="1">
  <advance width="680"/>
  <unicode hex="0077"/>
  <outline>
    <contour>
      <point x="481" y="-10" type="curve"/>
      <point x="574" y="35"/>
      <point x="629" y="159"/>
      <point x="638" y="333" type="curve" smooth="yes"/>
      <point x="645" y="480" type="line"/>
      <point x="556" y="480" type="line"/>
      <point x="548" y="337" type="line" smooth="yes"/>
      <point x="542" y="223"/>
      <point x="515" y="141"/>
      <point x="483" y="99" type="curve"/>
      <point x="408" y="182"/>
      <point x="398" y="327"/>
      <point x="388" y="403" type="curve"/>
      <point x="292" y="403" type="line"/>
      <point x="282" y="327"/>
      <point x="272" y="182"/>
      <point x="197" y="99" type="curve"/>
      <point x="165" y="141"/>
      <point x="138" y="223"/>
      <point x="132" y="337" type="curve" smooth="yes"/>
      <point x="124" y="480" type="line"/>
      <point x="35" y="480" type="line"/>
      <point x="42" y="333" type="line" smooth="yes"/>
      <point x="51" y="159"/>
      <point x="106" y="35"/>
      <point x="199" y="-10" type="curve"/>
      <point x="303" y="71"/>
      <point x="320" y="137"/>
      <point x="335" y="276" type="curve"/>
      <point x="345" y="276" type="line"/>
      <point x="360" y="137"/>
      <point x="377" y="71"/>
    </contour>
  </outline>
</glyph>
<glyph name="x" format="1">
  <advance width="465"/>
  <unicode hex="0078"/>
  <outline>
    <contour>
      <point x="425" y="0" type="line"/>
      <point x="425" y="36" type="line" smooth="yes"/>
      <point x="425" y="149"/>
      <point x="358" y="253"/>
      <point x="230" y="295" type="curve"/>
      <point x="100" y="252"/>
      <point x="35" y="145"/>
      <point x="35" y="30" type="curve" smooth="yes"/>
      <point x="35" y="0" type="line"/>
      <point x="123" y="0" type="line"/>
      <point x="123" y="30" type="line" smooth="yes"/>
      <point x="123" y="103"/>
      <point x="158" y="171"/>
      <point x="230" y="206" type="curve"/>
      <point x="303" y="173"/>
      <point x="337" y="108"/>
      <point x="337" y="36" type="curve" smooth="yes"/>
      <point x="337" y="0" type="line"/>
    </contour>
    <contour>
      <point x="337" y="480" type="line"/>
      <point x="337" y="466" type="line" smooth="yes"/>
      <point x="337" y="393"/>
      <point x="303" y="329"/>
      <point x="230" y="295" type="curve"/>
      <point x="158" y="331"/>
      <point x="123" y="399"/>
      <point x="123" y="472" type="curve" smooth="yes"/>
      <point x="123" y="480" type="line"/>
      <point x="35" y="480" type="line"/>
      <point x="35" y="472" type="line" smooth="yes"/>
      <point x="35" y="357"/>
      <point x="100" y="249"/>
      <point x="230" y="206" type="curve"/>
      <point x="358" y="248"/>
      <point x="425" y="353"/>
      <point x="425" y="466" type="curve" smooth="yes"/>
      <point x="425" y="480" type="line"/>
    </contour>
  </outline>
</glyph>
<glyph name="y" format="1">
  <advance width="498"/>
  <unicode hex="0079"/>
  <outline>
    <contour>
      <point x="45" y="480" type="line"/>
      <point x="45" y="233" type="line" smooth="yes"/>
      <point x="45" y="40"/>
      <point x="102" y="0"/>
      <point x="271" y="0" type="curve" smooth="yes"/>
      <point x="355" y="0" type="line"/>
      <point x="349" y="-100"/>
      <point x="281" y="-144"/>
      <point x="163" y="-144" type="curve" smooth="yes"/>
      <point x="100" y="-144" type="line"/>
      <point x="100" y="-228" type="line"/>
      <point x="172" y="-228" type="line" smooth="yes"/>
      <point x="362" y="-228"/>
      <point x="443" y="-140"/>
      <point x="443" y="24" type="curve" smooth="yes"/>
      <point x="443" y="480" type="line"/>
      <point x="355" y="480" type="line"/>
      <point x="355" y="84" type="line"/>
      <point x="250" y="84" type="line" smooth="yes"/>
      <point x="159" y="84"/>
      <point x="133" y="122"/>
      <point x="133" y="229" type="curve" smooth="yes"/>
      <point x="133" y="480" type="line"/>
    </contour>
  </outline>
</glyph>
<glyph name="z" format="1">
  <advance width="426"/>
  <unicode hex="007A"/>
  <outline>
    <contour>
      <point x="327" y="392" type="line"/>
      <point x="327" y="480" type="line"/>
      <point x="36" y="480" type="line"/>
      <point x="36" y="392" type="line"/>
    </contour>
    <contour>
      <point x="60" y="0" type="line"/>
      <point x="391" y="0" type="line"/>
      <point x="391" y="88" type="line"/>
      <point x="60" y="88" type="line"/>
    </contour>
    <contour>
      <point x="290" y="480" type="line"/>
      <point x="290" y="431" type="line" smooth="yes"/>
      <point x="290" y="300"/>
      <point x="35" y="233"/>
      <point x="35" y="40" type="curve" smooth="yes"/>
      <point x="35" y="0" type="line"/>
      <point x="120" y="0" type="line"/>
      <point x="120" y="40" type="line" smooth="yes"/>
      <point x="120" y="186"/>
      <point x="384" y="255"/>
      <point x="384" y="431" type="curve" smooth="yes"/>
      <point x="384" y="480" type="line"/>
    </contour>
  </outline>
</glyph>
<glyph name="braceleft" format="1">
  <advance width="378"/>
  <unicode hex="007B"/>
  <outline>
    <contour>
      <point x="75" y="282" type="line"/>
      <point x="128" y="275"/>
      <point x="154" y="223"/>
      <point x="154" y="170" type="curve" smooth="yes"/>
      <point x="154" y="-4" type="line" smooth="yes"/>
      <point x="154" y="-69"/>
      <point x="195" y="-126"/>
      <point x="254" y="-126" type="curve" smooth="yes"/>
      <point x="333" y="-126" type="line"/>
      <point x="333" y="-80" type="line"/>
      <point x="287" y="-80" type="line" smooth="yes"/>
      <point x="273" y="-80"/>
      <point x="242" y="-79"/>
      <point x="242" y="0" type="curve" smooth="yes"/>
      <point x="242" y="185" type="line" smooth="yes"/>
      <point x="242" y="256"/>
      <point x="208" y="299"/>
      <point x="163" y="312" type="curve"/>
      <point x="232" y="344"/>
      <point x="242" y="398"/>
      <point x="242" y="438" type="curve" smooth="yes"/>
      <point x="242" y="624" type="line" smooth="yes"/>
      <point x="242" y="703"/>
      <point x="269" y="704"/>
      <point x="290" y="704" type="curve" smooth="yes"/>
      <point x="333" y="704" type="line"/>
      <point x="333" y="750" type="line"/>
      <point x="266" y="750" type="line" smooth="yes"/>
      <point x="199" y="750"/>
      <point x="154" y="707"/>
      <point x="154" y="628" type="curve" smooth="yes"/>
      <point x="154" y="455" type="line" smooth="yes"/>
      <point x="154" y="398"/>
      <point x="128" y="347"/>
      <point x="75" y="342" type="curve"/>
    </contour>
  </outline>
</glyph>
<glyph name="bar" format="1">
  <advance width="220"/>
  <unicode hex="007C"/>
  <outline>
    <contour>
      <point x="75" y="0" type="line"/>
      <point x="145" y="0" type="line"/>
      <point x="145" y="700" type="line"/>
      <point x="75" y="700" type="line"/>
    </contour>
  </outline>
</glyph>
<glyph name="braceright" format="1">
  <advance width="407"/>
  <unicode hex="007D"/>
  <outline>
    <contour>
      <point x="303" y="342" type="line"/>
      <point x="250" y="349"/>
      <point x="224" y="401"/>
      <point x="224" y="454" type="curve" smooth="yes"/>
      <point x="224" y="628" type="line" smooth="yes"/>
      <point x="224" y="693"/>
      <point x="183" y="750"/>
      <point x="124" y="750" type="curve" smooth="yes"/>
      <point x="45" y="750" type="line"/>
      <point x="45" y="704" type="line"/>
      <point x="91" y="704" type="line" smooth="yes"/>
      <point x="105" y="704"/>
      <point x="136" y="703"/>
      <point x="136" y="624" type="curve" smooth="yes"/>
      <point x="136" y="447" type="line" smooth="yes"/>
      <point x="136" y="427"/>
      <point x="135" y="336"/>
      <point x="215" y="312" type="curve"/>
      <point x="145" y="280"/>
      <point x="136" y="228"/>
      <point x="136" y="181" type="curve" smooth="yes"/>
      <point x="136" y="0" type="line" smooth="yes"/>
      <point x="136" y="-79"/>
      <point x="105" y="-80"/>
      <point x="91" y="-80" type="curve" smooth="yes"/>
      <point x="45" y="-80" type="line"/>
      <point x="45" y="-126" type="line"/>
      <point x="124" y="-126" type="line" smooth="yes"/>
      <point x="183" y="-126"/>
      <point x="224" y="-69"/>
      <point x="224" y="-4" type="curve" smooth="yes"/>
      <point x="224" y="173" type="line" smooth="yes"/>
      <point x="224" y="225"/>
      <point x="250" y="277"/>
      <point x="303" y="282" type="curve"/>
    </contour>
  </outline>
</glyph>
<glyph name="asciitilde" format="1">
  <advance width="612"/>
  <unicode hex="007E"/>
  <outline>
    <contour>
      <point x="501" y="316" type="line"/>
      <point x="488" y="289"/>
      <point x="455" y="244"/>
      <point x="411" y="244" type="curve" smooth="yes"/>
      <point x="390" y="244"/>
      <point x="365" y="256"/>
      <point x="326" y="273" type="curve" smooth="yes"/>
      <point x="279" y="294"/>
      <point x="241" y="312"/>
      <point x="200" y="312" type="curve" smooth="yes"/>
      <point x="134" y="312"/>
      <point x="94" y="267"/>
      <point x="75" y="226" type="curve"/>
      <point x="111" y="164" type="line"/>
      <point x="132" y="217"/>
      <point x="163" y="236"/>
      <point x="199" y="236" type="curve" smooth="yes"/>
      <point x="240" y="236"/>
      <point x="281" y="216"/>
      <point x="312" y="200" type="curve" smooth="yes"/>
      <point x="345" y="183"/>
      <point x="375" y="168"/>
      <point x="411" y="168" type="curve" smooth="yes"/>
      <point x="464" y="168"/>
      <point x="502" y="198"/>
      <point x="537" y="254" type="curve"/>
    </contour>
  </outline>
</glyph>
<glyph name="exclamdown" format="1">
  <advance width="274"/>
  <unicode hex="00A1"/>
  <outline>
    <contour>
      <point x="80" y="-188" type="curve" smooth="yes"/>
      <point x="80" y="-223"/>
      <point x="102" y="-240"/>
      <point x="137" y="-240" type="curve" smooth="yes"/>
      <point x="172" y="-240"/>
      <point x="194" y="-223"/>
      <point x="194" y="-188" type="curve" smooth="yes"/>
      <point x="194" y="-155"/>
      <point x="181" y="-30"/>
      <point x="181" y="290" type="curve"/>
      <point x="97" y="290" type="line"/>
      <point x="97" y="-30"/>
      <point x="80" y="-155"/>
    </contour>
    <contour>
      <point x="75" y="419" type="curve" smooth="yes"/>
      <point x="75" y="384"/>
      <point x="102" y="357"/>
      <point x="137" y="357" type="curve" smooth="yes"/>
      <point x="172" y="357"/>
      <point x="199" y="384"/>
      <point x="199" y="419" type="curve" smooth="yes"/>
      <point x="199" y="454"/>
      <point x="172" y="481"/>
      <point x="137" y="481" type="curve" smooth="yes"/>
      <point x="102" y="481"/>
      <point x="75" y="454"/>
    </contour>
  </outline>
</glyph>
<glyph name="cent" format="1">
  <advance width="473"/>
  <unicode hex="00A2"/>
  <outline>
    <contour>
      <point x="225" y="-100" type="line"/>
      <point x="305" y="-100" type="line"/>
      <point x="305" y="-9" type="line"/>
      <point x="359" y="-6"/>
      <point x="408" y="14"/>
      <point x="448" y="46" type="curve"/>
      <point x="388" y="105" type="line"/>
      <point x="365" y="87"/>
      <point x="337" y="77"/>
      <point x="305" y="74" type="curve"/>
      <point x="305" y="405" type="line"/>
      <point x="338" y="403"/>
      <point x="366" y="391"/>
      <point x="389" y="374" type="curve"/>
      <point x="448" y="434" type="line"/>
      <point x="408" y="466"/>
      <point x="359" y="486"/>
      <point x="305" y="489" type="curve"/>
      <point x="305" y="600" type="line"/>
      <point x="225" y="600" type="line"/>
      <point x="225" y="481" type="line"/>
      <point x="119" y="453"/>
      <point x="45" y="356"/>
      <point x="45" y="240" type="curve" smooth="yes"/>
      <point x="45" y="123"/>
      <point x="119" y="27"/>
      <point x="225" y="-1" type="curve"/>
    </contour>
    <contour>
      <point x="140" y="240" type="curve" smooth="yes"/>
      <point x="140" y="313"/>
      <point x="171" y="369"/>
      <point x="225" y="393" type="curve"/>
      <point x="225" y="87" type="line"/>
      <point x="171" y="111"/>
      <point x="140" y="167"/>
    </contour>
  </outline>
</glyph>
<glyph name="sterling" format="1">
  <advance width="548"/>
  <unicode hex="00A3"/>
  <outline>
    <contour>
      <point x="385" y="410" type="line"/>
      <point x="217" y="410" type="line"/>
      <point x="217" y="497" type="line" smooth="yes"/>
      <point x="217" y="585"/>
      <point x="271" y="624"/>
      <point x="334" y="624" type="curve" smooth="yes"/>
      <point x="371" y="624"/>
      <point x="405" y="610"/>
      <point x="422" y="603" type="curve"/>
      <point x="453" y="688" type="line"/>
      <point x="428" y="699"/>
      <point x="384" y="712"/>
      <point x="332" y="712" type="curve" smooth="yes"/>
      <point x="200" y="712"/>
      <point x="123" y="620"/>
      <point x="123" y="489" type="curve" smooth="yes"/>
      <point x="123" y="410" type="line"/>
      <point x="57" y="410" type="line"/>
      <point x="57" y="322" type="line"/>
      <point x="123" y="322" type="line"/>
      <point x="123" y="189" type="line" smooth="yes"/>
      <point x="123" y="129"/>
      <point x="111" y="88"/>
      <point x="59" y="88" type="curve" smooth="yes"/>
      <point x="44" y="88" type="line"/>
      <point x="44" y="0" type="line"/>
      <point x="354" y="0" type="line" smooth="yes"/>
      <point x="469" y="0"/>
      <point x="544" y="87"/>
      <point x="544" y="214" type="curve" smooth="yes"/>
      <point x="544" y="281" type="line"/>
      <point x="450" y="281" type="line"/>
      <point x="450" y="207" type="line" smooth="yes"/>
      <point x="450" y="136"/>
      <point x="399" y="88"/>
      <point x="326" y="88" type="curve" smooth="yes"/>
      <point x="183" y="88" type="line"/>
      <point x="219" y="123"/>
      <point x="217" y="162"/>
      <point x="217" y="197" type="curve" smooth="yes"/>
      <point x="217" y="322" type="line"/>
      <point x="385" y="322" type="line"/>
    </contour>
  </outline>
</glyph>
<glyph name="currency" format="1">
  <advance width="595"/>
  <unicode hex="00A4"/>
  <outline>
    <contour>
      <point x="131" y="145" type="line"/>
      <point x="176" y="193" type="line"/>
      <point x="221" y="153"/>
      <point x="268" y="149"/>
      <point x="297" y="149" type="curve" smooth="yes"/>
      <point x="326" y="149"/>
      <point x="373" y="153"/>
      <point x="418" y="193" type="curve"/>
      <point x="463" y="145" type="line"/>
      <point x="502" y="184" type="line"/>
      <point x="457" y="231" type="line"/>
      <point x="489" y="270"/>
      <point x="498" y="312"/>
      <point x="498" y="350" type="curve" smooth="yes"/>
      <point x="498" y="388"/>
      <point x="489" y="430"/>
      <point x="457" y="469" type="curve"/>
      <point x="502" y="516" type="line"/>
      <point x="463" y="555" type="line"/>
      <point x="418" y="507" type="line"/>
      <point x="373" y="547"/>
      <point x="326" y="551"/>
      <point x="297" y="551" type="curve" smooth="yes"/>
      <point x="268" y="551"/>
      <point x="221" y="547"/>
      <point x="176" y="507" type="curve"/>
      <point x="131" y="555" type="line"/>
      <point x="92" y="516" type="line"/>
      <point x="137" y="469" type="line"/>
      <point x="105" y="430"/>
      <point x="96" y="388"/>
      <point x="96" y="350" type="curve" smooth="yes"/>
      <point x="96" y="312"/>
      <point x="105" y="270"/>
      <point x="137" y="231" type="curve"/>
      <point x="92" y="184" type="line"/>
    </contour>
    <contour>
      <point x="176" y="350" type="curve" smooth="yes"/>
      <point x="176" y="418"/>
      <point x="230" y="475"/>
      <point x="297" y="475" type="curve" smooth="yes"/>
      <point x="364" y="475"/>
      <point x="418" y="418"/>
      <point x="418" y="350" type="curve" smooth="yes"/>
      <point x="418" y="282"/>
      <point x="364" y="225"/>
      <point x="297" y="225" type="curve" smooth="yes"/>
      <point x="230" y="225"/>
      <point x="176" y="282"/>
    </contour>
  </outline>
</glyph>
<glyph name="yen" format="1">
  <advance width="543"/>
  <unicode hex="00A5"/>
  <outline>
    <contour>
      <point x="491" y="210" type="line"/>
      <point x="320" y="210" type="line"/>
      <point x="320" y="260" type="line"/>
      <point x="491" y="260" type="line"/>
      <point x="491" y="338" type="line"/>
      <point x="396" y="338" type="line"/>
      <point x="464" y="418"/>
      <point x="498" y="531"/>
      <point x="498" y="650" type="curve" smooth="yes"/>
      <point x="498" y="700" type="line"/>
      <point x="404" y="700" type="line"/>
      <point x="404" y="650" type="line" smooth="yes"/>
      <point x="404" y="526"/>
      <point x="374" y="420"/>
      <point x="273" y="353" type="curve"/>
      <point x="169" y="419"/>
      <point x="141" y="525"/>
      <point x="141" y="650" type="curve" smooth="yes"/>
      <point x="141" y="700" type="line"/>
      <point x="45" y="700" type="line"/>
      <point x="45" y="641" type="line" smooth="yes"/>
      <point x="45" y="525"/>
      <point x="79" y="416"/>
      <point x="146" y="338" type="curve"/>
      <point x="51" y="338" type="line"/>
      <point x="51" y="260" type="line"/>
      <point x="226" y="260" type="line"/>
      <point x="226" y="210" type="line"/>
      <point x="51" y="210" type="line"/>
      <point x="51" y="132" type="line"/>
      <point x="226" y="132" type="line"/>
      <point x="226" y="0" type="line"/>
      <point x="320" y="0" type="line"/>
      <point x="320" y="132" type="line"/>
      <point x="491" y="132" type="line"/>
    </contour>
  </outline>
</glyph>
<glyph name="brokenbar" format="1">
  <advance width="220"/>
  <unicode hex="00A6"/>
  <outline>
    <contour>
      <point x="75" y="418" type="line"/>
      <point x="145" y="418" type="line"/>
      <point x="145" y="700" type="line"/>
      <point x="75" y="700" type="line"/>
    </contour>
    <contour>
      <point x="75" y="0" type="line"/>
      <point x="145" y="0" type="line"/>
      <point x="145" y="282" type="line"/>
      <point x="75" y="282" type="line"/>
    </contour>
  </outline>
</glyph>
<glyph name="section" format="1">
  <advance width="493"/>
  <unicode hex="00A7"/>
  <outline>
    <contour>
      <point x="421" y="712" type="line"/>
      <point x="248" y="712" type="line" smooth="yes"/>
      <point x="132" y="712"/>
      <point x="91" y="652"/>
      <point x="91" y="592" type="curve" smooth="yes"/>
      <point x="91" y="535"/>
      <point x="120" y="498"/>
      <point x="180" y="463" type="curve"/>
      <point x="115" y="462"/>
      <point x="68" y="413"/>
      <point x="68" y="345" type="curve" smooth="yes"/>
      <point x="68" y="255"/>
      <point x="148" y="202"/>
      <point x="209" y="167" type="curve" smooth="yes"/>
      <point x="267" y="135"/>
      <point x="327" y="117"/>
      <point x="327" y="69" type="curve" smooth="yes"/>
      <point x="327" y="37"/>
      <point x="298" y="29"/>
      <point x="273" y="29" type="curve" smooth="yes"/>
      <point x="55" y="29" type="line"/>
      <point x="55" y="-55" type="line"/>
      <point x="259" y="-55" type="line" smooth="yes"/>
      <point x="390" y="-55"/>
      <point x="417" y="19"/>
      <point x="417" y="67" type="curve" smooth="yes"/>
      <point x="417" y="114"/>
      <point x="389" y="159"/>
      <point x="340" y="186" type="curve"/>
      <point x="404" y="197"/>
      <point x="438" y="248"/>
      <point x="438" y="309" type="curve" smooth="yes"/>
      <point x="438" y="395"/>
      <point x="379" y="447"/>
      <point x="299" y="492" type="curve" smooth="yes"/>
      <point x="242" y="525"/>
      <point x="181" y="545"/>
      <point x="181" y="591" type="curve" smooth="yes"/>
      <point x="181" y="628"/>
      <point x="221" y="628"/>
      <point x="236" y="628" type="curve" smooth="yes"/>
      <point x="421" y="628" type="line"/>
    </contour>
    <contour>
      <point x="251" y="417" type="curve" smooth="yes"/>
      <point x="296" y="404"/>
      <point x="353" y="356"/>
      <point x="353" y="303" type="curve" smooth="yes"/>
      <point x="353" y="254"/>
      <point x="315" y="233"/>
      <point x="283" y="233" type="curve" smooth="yes"/>
      <point x="239" y="233"/>
      <point x="151" y="289"/>
      <point x="151" y="351" type="curve" smooth="yes"/>
      <point x="151" y="392"/>
      <point x="178" y="422"/>
      <point x="221" y="422" type="curve" smooth="yes"/>
      <point x="230" y="422"/>
      <point x="240" y="420"/>
    </contour>
  </outline>
</glyph>
<glyph name="dieresis" format="1">
  <advance width="362"/>
  <unicode hex="00A8"/>
  <outline>
    <contour>
      <point x="35" y="624" type="curve" smooth="yes"/>
      <point x="35" y="592"/>
      <point x="59" y="568"/>
      <point x="91" y="568" type="curve" smooth="yes"/>
      <point x="123" y="568"/>
      <point x="147" y="592"/>
      <point x="147" y="624" type="curve" smooth="yes"/>
      <point x="147" y="656"/>
      <point x="123" y="680"/>
      <point x="91" y="680" type="curve" smooth="yes"/>
      <point x="59" y="680"/>
      <point x="35" y="656"/>
    </contour>
    <contour>
      <point x="215" y="624" type="curve" smooth="yes"/>
      <point x="215" y="592"/>
      <point x="239" y="568"/>
      <point x="271" y="568" type="curve" smooth="yes"/>
      <point x="303" y="568"/>
      <point x="327" y="592"/>
      <point x="327" y="624" type="curve" smooth="yes"/>
      <point x="327" y="656"/>
      <point x="303" y="680"/>
      <point x="271" y="680" type="curve" smooth="yes"/>
      <point x="239" y="680"/>
      <point x="215" y="656"/>
    </contour>
  </outline>
</glyph>
<glyph name="copyright" format="1">
  <advance width="818"/>
  <unicode hex="00A9"/>
  <outline>
    <contour>
      <point x="55" y="350" type="curve" smooth="yes"/>
      <point x="55" y="139"/>
      <point x="217" y="-12"/>
      <point x="409" y="-12" type="curve" smooth="yes"/>
      <point x="601" y="-12"/>
      <point x="763" y="139"/>
      <point x="763" y="350" type="curve" smooth="yes"/>
      <point x="763" y="561"/>
      <point x="601" y="712"/>
      <point x="409" y="712" type="curve" smooth="yes"/>
      <point x="217" y="712"/>
      <point x="55" y="561"/>
    </contour>
    <contour>
      <point x="125" y="350" type="curve" smooth="yes"/>
      <point x="125" y="510"/>
      <point x="240" y="648"/>
      <point x="409" y="648" type="curve" smooth="yes"/>
      <point x="578" y="648"/>
      <point x="693" y="510"/>
      <point x="693" y="350" type="curve" smooth="yes"/>
      <point x="693" y="188"/>
      <point x="576" y="52"/>
      <point x="409" y="52" type="curve" smooth="yes"/>
      <point x="240" y="52"/>
      <point x="125" y="188"/>
    </contour>
    <contour>
      <point x="502" y="547" type="line"/>
      <point x="458" y="547" type="line" smooth="yes"/>
      <point x="406" y="547"/>
      <point x="358" y="545"/>
      <point x="307" y="510" type="curve" smooth="yes"/>
      <point x="248" y="471"/>
      <point x="217" y="405"/>
      <point x="217" y="337" type="curve" smooth="yes"/>
      <point x="217" y="233"/>
      <point x="291" y="126"/>
      <point x="446" y="126" type="curve" smooth="yes"/>
      <point x="502" y="126" type="line"/>
      <point x="502" y="200" type="line"/>
      <point x="448" y="200" type="line" smooth="yes"/>
      <point x="348" y="200"/>
      <point x="298" y="268"/>
      <point x="298" y="337" type="curve" smooth="yes"/>
      <point x="298" y="382"/>
      <point x="317" y="422"/>
      <point x="348" y="445" type="curve" smooth="yes"/>
      <point x="383" y="472"/>
      <point x="421" y="473"/>
      <point x="458" y="473" type="curve" smooth="yes"/>
      <point x="502" y="473" type="line"/>
    </contour>
  </outline>
</glyph>
<glyph name="ordfeminine" format="1">
  <advance width="357"/>
  <unicode hex="00AA"/>
  <outline>
    <contour>
      <point x="206" y="571" type="line"/>
      <point x="194" y="576"/>
      <point x="182" y="579"/>
      <point x="163" y="579" type="curve" smooth="yes"/>
      <point x="97" y="579"/>
      <point x="39" y="548"/>
      <point x="39" y="479" type="curve" smooth="yes"/>
      <point x="39" y="413"/>
      <point x="90" y="380"/>
      <point x="163" y="380" type="curve" smooth="yes"/>
      <point x="311" y="380" type="line"/>
      <point x="311" y="576" type="line" smooth="yes"/>
      <point x="311" y="657"/>
      <point x="263" y="700"/>
      <point x="177" y="700" type="curve" smooth="yes"/>
      <point x="67" y="700" type="line"/>
      <point x="67" y="634" type="line"/>
      <point x="177" y="634" type="line"/>
      <point x="221" y="634"/>
      <point x="245" y="614"/>
      <point x="245" y="576" type="curve"/>
      <point x="245" y="446" type="line"/>
      <point x="163" y="446" type="line"/>
      <point x="126" y="446"/>
      <point x="105" y="454"/>
      <point x="105" y="479" type="curve" smooth="yes"/>
      <point x="105" y="511"/>
      <point x="130" y="524"/>
      <point x="163" y="524" type="curve" smooth="yes"/>
      <point x="177" y="524"/>
      <point x="191" y="521"/>
      <point x="206" y="516" type="curve"/>
    </contour>
  </outline>
</glyph>
<glyph name="guillemotleft" format="1">
  <advance width="481"/>
  <unicode hex="00AB"/>
  <outline>
    <contour>
      <point x="151" y="240" type="line"/>
      <point x="276" y="394" type="line"/>
      <point x="180" y="394" type="line"/>
      <point x="55" y="240" type="line"/>
      <point x="180" y="86" type="line"/>
      <point x="276" y="86" type="line"/>
    </contour>
    <contour>
      <point x="341" y="240" type="line"/>
      <point x="466" y="394" type="line"/>
      <point x="370" y="394" type="line"/>
      <point x="245" y="240" type="line"/>
      <point x="370" y="86" type="line"/>
      <point x="466" y="86" type="line"/>
    </contour>
  </outline>
</glyph>
<glyph name="logicalnot" format="1">
  <advance width="580"/>
  <unicode hex="00AC"/>
  <outline>
    <contour>
      <point x="452" y="112" type="line"/>
      <point x="530" y="112" type="line"/>
      <point x="530" y="328" type="line"/>
      <point x="50" y="328" type="line"/>
      <point x="50" y="250" type="line"/>
      <point x="452" y="250" type="line"/>
    </contour>
  </outline>
</glyph>
<glyph name="uni00AD" format="1">
  <advance width="290"/>
  <unicode hex="00AD"/>
  <outline>
    <contour>
      <point x="257" y="200" type="line"/>
      <point x="257" y="280" type="line"/>
      <point x="33" y="280" type="line"/>
      <point x="33" y="200" type="line"/>
    </contour>
  </outline>
</glyph>
<glyph name="registered" format="1">
  <advance width="815"/>
  <unicode hex="00AE"/>
  <outline>
    <contour>
      <point x="339" y="141" type="line"/>
      <point x="339" y="413" type="line"/>
      <point x="339" y="430"/>
      <point x="341" y="495"/>
      <point x="403" y="495" type="curve" smooth="yes"/>
      <point x="443" y="495"/>
      <point x="467" y="472"/>
      <point x="467" y="441" type="curve" smooth="yes"/>
      <point x="467" y="414"/>
      <point x="450" y="384"/>
      <point x="395" y="384" type="curve"/>
      <point x="370" y="384" type="line"/>
      <point x="370" y="315" type="line"/>
      <point x="411" y="315" type="line"/>
      <point x="439" y="315"/>
      <point x="474" y="310"/>
      <point x="474" y="253" type="curve"/>
      <point x="474" y="141" type="line"/>
      <point x="547" y="141" type="line"/>
      <point x="547" y="269" type="line"/>
      <point x="547" y="300"/>
      <point x="540" y="336"/>
      <point x="502" y="355" type="curve"/>
      <point x="527" y="376"/>
      <point x="540" y="403"/>
      <point x="540" y="437" type="curve" smooth="yes"/>
      <point x="540" y="489"/>
      <point x="514" y="523"/>
      <point x="488" y="541" type="curve" smooth="yes"/>
      <point x="465" y="557"/>
      <point x="433" y="564"/>
      <point x="404" y="564" type="curve" smooth="yes"/>
      <point x="382" y="564"/>
      <point x="351" y="555"/>
      <point x="331" y="546" type="curve"/>
      <point x="270" y="511"/>
      <point x="266" y="450"/>
      <point x="266" y="403" type="curve"/>
      <point x="266" y="141" type="line"/>
    </contour>
    <contour>
      <point x="55" y="350" type="curve" smooth="yes"/>
      <point x="55" y="139"/>
      <point x="217" y="-12"/>
      <point x="409" y="-12" type="curve" smooth="yes"/>
      <point x="601" y="-12"/>
      <point x="763" y="139"/>
      <point x="763" y="350" type="curve" smooth="yes"/>
      <point x="763" y="561"/>
      <point x="601" y="712"/>
      <point x="409" y="712" type="curve" smooth="yes"/>
      <point x="217" y="712"/>
      <point x="55" y="561"/>
    </contour>
    <contour>
      <point x="125" y="350" type="curve" smooth="yes"/>
      <point x="125" y="510"/>
      <point x="240" y="648"/>
      <point x="409" y="648" type="curve" smooth="yes"/>
      <point x="578" y="648"/>
      <point x="693" y="510"/>
      <point x="693" y="350" type="curve" smooth="yes"/>
      <point x="693" y="188"/>
      <point x="576" y="52"/>
      <point x="409" y="52" type="curve" smooth="yes"/>
      <point x="240" y="52"/>
      <point x="125" y="188"/>
    </contour>
  </outline>
</glyph>
<glyph name="macron" format="1">
  <advance width="290"/>
  <unicode hex="00AF"/>
  <outline>
    <contour>
      <point x="300" y="572" type="line"/>
      <point x="300" y="640" type="line"/>
      <point x="-10" y="640" type="line"/>
      <point x="-10" y="572" type="line"/>
    </contour>
  </outline>
</glyph>
<glyph name="degree" format="1">
  <advance width="339"/>
  <unicode hex="00B0"/>
  <outline>
    <contour>
      <point x="55" y="607" type="curve" smooth="yes"/>
      <point x="55" y="542"/>
      <point x="104" y="493"/>
      <point x="169" y="493" type="curve" smooth="yes"/>
      <point x="235" y="493"/>
      <point x="284" y="542"/>
      <point x="284" y="607" type="curve" smooth="yes"/>
      <point x="284" y="673"/>
      <point x="235" y="722"/>
      <point x="169" y="722" type="curve" smooth="yes"/>
      <point x="104" y="722"/>
      <point x="55" y="673"/>
    </contour>
    <contour>
      <point x="120" y="607" type="curve" smooth="yes"/>
      <point x="120" y="636"/>
      <point x="141" y="657"/>
      <point x="169" y="657" type="curve" smooth="yes"/>
      <point x="198" y="657"/>
      <point x="219" y="636"/>
      <point x="219" y="607" type="curve" smooth="yes"/>
      <point x="219" y="579"/>
      <point x="198" y="558"/>
      <point x="169" y="558" type="curve" smooth="yes"/>
      <point x="141" y="558"/>
      <point x="120" y="579"/>
    </contour>
  </outline>
</glyph>
<glyph name="plusminus" format="1">
  <advance width="580"/>
  <unicode hex="00B1"/>
  <outline>
    <contour>
      <point x="251" y="335" type="line"/>
      <point x="50" y="335" type="line"/>
      <point x="50" y="257" type="line"/>
      <point x="251" y="257" type="line"/>
      <point x="251" y="112" type="line"/>
      <point x="329" y="112" type="line"/>
      <point x="329" y="257" type="line"/>
      <point x="530" y="257" type="line"/>
      <point x="530" y="335" type="line"/>
      <point x="329" y="335" type="line"/>
      <point x="329" y="480" type="line"/>
      <point x="251" y="480" type="line"/>
    </contour>
    <contour>
      <point x="50" y="0" type="line"/>
      <point x="530" y="0" type="line"/>
      <point x="530" y="78" type="line"/>
      <point x="50" y="78" type="line"/>
    </contour>
  </outline>
</glyph>
<glyph name="twosuperior" format="1">
  <advance width="291"/>
  <unicode hex="00B2"/>
  <outline>
    <contour>
      <point x="251" y="607" type="curve" smooth="yes"/>
      <point x="251" y="666"/>
      <point x="215" y="710"/>
      <point x="149" y="710" type="curve" smooth="yes"/>
      <point x="88" y="710"/>
      <point x="54" y="682"/>
      <point x="32" y="647" type="curve"/>
      <point x="88" y="614" type="line"/>
      <point x="100" y="639"/>
      <point x="121" y="651"/>
      <point x="145" y="651" type="curve" smooth="yes"/>
      <point x="175" y="651"/>
      <point x="186" y="630"/>
      <point x="186" y="609" type="curve" smooth="yes"/>
      <point x="186" y="584"/>
      <point x="184" y="573"/>
      <point x="156" y="548" type="curve" smooth="yes"/>
      <point x="87" y="486"/>
      <point x="45" y="452"/>
      <point x="45" y="400" type="curve" smooth="yes"/>
      <point x="45" y="380" type="line"/>
      <point x="105" y="380" type="line"/>
      <point x="105" y="404" type="line" smooth="yes"/>
      <point x="105" y="436"/>
      <point x="132" y="447"/>
      <point x="198" y="512" type="curve" smooth="yes"/>
      <point x="239" y="552"/>
      <point x="251" y="571"/>
    </contour>
    <contour>
      <point x="258" y="380" type="line"/>
      <point x="258" y="443" type="line"/>
      <point x="68" y="443" type="line"/>
      <point x="68" y="380" type="line"/>
    </contour>
  </outline>
</glyph>
<glyph name="threesuperior" format="1">
  <advance width="282"/>
  <unicode hex="00B3"/>
  <outline>
    <contour>
      <point x="190" y="476" type="line"/>
      <point x="190" y="444"/>
      <point x="169" y="426"/>
      <point x="133" y="426" type="curve" smooth="yes"/>
      <point x="105" y="426"/>
      <point x="82" y="444"/>
      <point x="75" y="467" type="curve"/>
      <point x="22" y="441" type="line"/>
      <point x="33" y="399"/>
      <point x="77" y="369"/>
      <point x="134" y="369" type="curve" smooth="yes"/>
      <point x="199" y="369"/>
      <point x="254" y="408"/>
      <point x="254" y="476" type="curve"/>
    </contour>
    <contour>
      <point x="254" y="476" type="line"/>
      <point x="254" y="544"/>
      <point x="208" y="579"/>
      <point x="125" y="579" type="curve" smooth="yes"/>
      <point x="99" y="579" type="line"/>
      <point x="99" y="528" type="line"/>
      <point x="125" y="528" type="line" smooth="yes"/>
      <point x="159" y="528"/>
      <point x="190" y="519"/>
      <point x="190" y="476" type="curve"/>
    </contour>
    <contour>
      <point x="198" y="637" type="line"/>
      <point x="198" y="700" type="line"/>
      <point x="44" y="700" type="line"/>
      <point x="44" y="637" type="line"/>
    </contour>
    <contour>
      <point x="99" y="532" type="line"/>
      <point x="169" y="549"/>
      <point x="239" y="603"/>
      <point x="239" y="690" type="curve" smooth="yes"/>
      <point x="239" y="700" type="line"/>
      <point x="187" y="700" type="line"/>
      <point x="187" y="694" type="line" smooth="yes"/>
      <point x="187" y="639"/>
      <point x="148" y="595"/>
      <point x="99" y="579" type="curve"/>
    </contour>
  </outline>
</glyph>
<glyph name="acute" format="1">
  <advance width="250"/>
  <unicode hex="00B4"/>
  <outline>
    <contour>
      <point x="87" y="525" type="line"/>
      <point x="215" y="653" type="line"/>
      <point x="153" y="715" type="line"/>
      <point x="35" y="567" type="line"/>
    </contour>
  </outline>
</glyph>
<glyph name="mu" format="1">
  <advance width="498"/>
  <unicode hex="00B5"/>
  <outline>
    <contour>
      <point x="243" y="84" type="curve" smooth="yes"/>
      <point x="139" y="84"/>
      <point x="135" y="186"/>
      <point x="135" y="230" type="curve" smooth="yes"/>
      <point x="135" y="480" type="line"/>
      <point x="47" y="480" type="line"/>
      <point x="47" y="-227" type="line"/>
      <point x="135" y="-227" type="line"/>
      <point x="135" y="57" type="line"/>
      <point x="164" y="18"/>
      <point x="200" y="0"/>
      <point x="243" y="0" type="curve" smooth="yes"/>
      <point x="286" y="0"/>
      <point x="322" y="18"/>
      <point x="351" y="57" type="curve"/>
      <point x="351" y="-1" type="line"/>
      <point x="439" y="-1" type="line"/>
      <point x="439" y="480" type="line"/>
      <point x="351" y="480" type="line"/>
      <point x="351" y="216" type="line" smooth="yes"/>
      <point x="351" y="170"/>
      <point x="336" y="84"/>
    </contour>
  </outline>
</glyph>
<glyph name="paragraph" format="1">
  <advance width="596"/>
  <unicode hex="00B6"/>
  <outline>
    <contour>
      <point x="521" y="700" type="line"/>
      <point x="284" y="700" type="line" smooth="yes"/>
      <point x="185" y="700"/>
      <point x="45" y="682"/>
      <point x="45" y="522" type="curve" smooth="yes"/>
      <point x="45" y="471"/>
      <point x="67" y="346"/>
      <point x="271" y="346" type="curve" smooth="yes"/>
      <point x="286" y="346" type="line"/>
      <point x="286" y="0" type="line"/>
      <point x="370" y="0" type="line"/>
      <point x="370" y="612" type="line"/>
      <point x="437" y="612" type="line"/>
      <point x="437" y="0" type="line"/>
      <point x="521" y="0" type="line"/>
    </contour>
  </outline>
</glyph>
<glyph name="cedilla" format="1">
  <advance width="217"/>
  <unicode hex="00B8"/>
  <outline>
    <contour>
      <point x="92" y="-101" type="line"/>
      <point x="108" y="-94"/>
      <point x="123" y="-93"/>
      <point x="132" y="-93" type="curve" smooth="yes"/>
      <point x="166" y="-93"/>
      <point x="182" y="-115"/>
      <point x="182" y="-135" type="curve" smooth="yes"/>
      <point x="182" y="-152"/>
      <point x="173" y="-179"/>
      <point x="124" y="-179" type="curve" smooth="yes"/>
      <point x="108" y="-179"/>
      <point x="86" y="-177"/>
      <point x="54" y="-163" type="curve"/>
      <point x="35" y="-204" type="line"/>
      <point x="84" y="-225"/>
      <point x="121" y="-228"/>
      <point x="139" y="-228" type="curve" smooth="yes"/>
      <point x="219" y="-228"/>
      <point x="262" y="-184"/>
      <point x="262" y="-131" type="curve" smooth="yes"/>
      <point x="262" y="-101"/>
      <point x="249" y="-53"/>
      <point x="174" y="-53" type="curve" smooth="yes"/>
      <point x="163" y="-53"/>
      <point x="153" y="-54"/>
      <point x="142" y="-56" type="curve"/>
      <point x="170" y="10" type="line"/>
      <point x="109" y="10" type="line"/>
      <point x="73" y="-80" type="line"/>
    </contour>
  </outline>
</glyph>
<glyph name="onesuperior" format="1">
  <advance width="245"/>
  <unicode hex="00B9"/>
  <outline>
    <contour>
      <point x="190" y="380" type="line"/>
      <point x="190" y="700" type="line"/>
      <point x="114" y="700" type="line"/>
      <point x="114" y="380" type="line"/>
    </contour>
    <contour>
      <point x="174" y="637" type="line"/>
      <point x="174" y="700" type="line"/>
      <point x="74" y="700" type="line"/>
      <point x="55" y="637" type="line"/>
    </contour>
  </outline>
</glyph>
<glyph name="ordmasculine" format="1">
  <advance width="425"/>
  <unicode hex="00BA"/>
  <outline>
    <contour>
      <point x="221" y="709" type="curve" smooth="yes"/>
      <point x="127" y="709"/>
      <point x="55" y="633"/>
      <point x="55" y="539" type="curve" smooth="yes"/>
      <point x="55" y="445"/>
      <point x="127" y="370"/>
      <point x="221" y="370" type="curve" smooth="yes"/>
      <point x="315" y="370"/>
      <point x="387" y="445"/>
      <point x="387" y="539" type="curve" smooth="yes"/>
      <point x="387" y="633"/>
      <point x="315" y="709"/>
    </contour>
    <contour>
      <point x="221" y="635" type="curve" smooth="yes"/>
      <point x="273" y="635"/>
      <point x="313" y="591"/>
      <point x="313" y="539" type="curve" smooth="yes"/>
      <point x="313" y="487"/>
      <point x="273" y="444"/>
      <point x="221" y="444" type="curve" smooth="yes"/>
      <point x="169" y="444"/>
      <point x="129" y="487"/>
      <point x="129" y="539" type="curve" smooth="yes"/>
      <point x="129" y="591"/>
      <point x="169" y="635"/>
    </contour>
  </outline>
</glyph>
<glyph name="guillemotright" format="1">
  <advance width="481"/>
  <unicode hex="00BB"/>
  <outline>
    <contour>
      <point x="140" y="240" type="line"/>
      <point x="15" y="86" type="line"/>
      <point x="111" y="86" type="line"/>
      <point x="236" y="240" type="line"/>
      <point x="111" y="394" type="line"/>
      <point x="15" y="394" type="line"/>
    </contour>
    <contour>
      <point x="330" y="240" type="line"/>
      <point x="205" y="86" type="line"/>
      <point x="301" y="86" type="line"/>
      <point x="426" y="240" type="line"/>
      <point x="301" y="394" type="line"/>
      <point x="205" y="394" type="line"/>
    </contour>
  </outline>
</glyph>
<glyph name="questiondown" format="1">
  <advance width="528"/>
  <unicode hex="00BF"/>
  <outline>
    <contour>
      <point x="135" y="98" type="line"/>
      <point x="82" y="60"/>
      <point x="75" y="8"/>
      <point x="75" y="-34" type="curve" smooth="yes"/>
      <point x="75" y="-145"/>
      <point x="165" y="-210"/>
      <point x="264" y="-210" type="curve" smooth="yes"/>
      <point x="359" y="-210"/>
      <point x="453" y="-152"/>
      <point x="453" y="-28" type="curve" smooth="yes"/>
      <point x="453" y="103"/>
      <point x="304" y="184"/>
      <point x="304" y="268" type="curve"/>
      <point x="207" y="268" type="line"/>
      <point x="207" y="223"/>
      <point x="221" y="204"/>
      <point x="244" y="175" type="curve" smooth="yes"/>
      <point x="296" y="110"/>
      <point x="361" y="44"/>
      <point x="361" y="-17" type="curve" smooth="yes"/>
      <point x="361" y="-88"/>
      <point x="309" y="-124"/>
      <point x="258" y="-124" type="curve" smooth="yes"/>
      <point x="209" y="-124"/>
      <point x="162" y="-92"/>
      <point x="162" y="-30" type="curve" smooth="yes"/>
      <point x="162" y="-10"/>
      <point x="171" y="18"/>
      <point x="193" y="39" type="curve"/>
    </contour>
    <contour>
      <point x="196" y="427" type="curve" smooth="yes"/>
      <point x="196" y="392"/>
      <point x="223" y="365"/>
      <point x="258" y="365" type="curve" smooth="yes"/>
      <point x="293" y="365"/>
      <point x="320" y="392"/>
      <point x="320" y="427" type="curve" smooth="yes"/>
      <point x="320" y="462"/>
      <point x="293" y="489"/>
      <point x="258" y="489" type="curve" smooth="yes"/>
      <point x="223" y="489"/>
      <point x="196" y="462"/>
    </contour>
  </outline>
</glyph>
<glyph name="AE" format="1">
  <advance width="888"/>
  <unicode hex="00C6"/>
  <outline>
    <contour>
      <point x="534" y="520" type="line" smooth="yes"/>
      <point x="534" y="600"/>
      <point x="600" y="612"/>
      <point x="644" y="612" type="curve" smooth="yes" name="hr01"/>
      <point x="838" y="612" type="line"/>
      <point x="838" y="700" type="line"/>
      <point x="640" y="700" type="line" smooth="yes"/>
      <point x="542" y="700"/>
      <point x="485" y="649"/>
      <point x="444" y="470" type="curve" name="hr02"/>
      <point x="444" y="0" type="line"/>
      <point x="534" y="0" type="line"/>
      <point x="534" y="318" type="line" name="hr03"/>
      <point x="765" y="318" type="line"/>
      <point x="765" y="406" type="line"/>
      <point x="534" y="406" type="line"/>
    </contour>
    <contour>
      <point x="838" y="0" type="line"/>
      <point x="838" y="88" type="line"/>
      <point x="534" y="88" type="line"/>
      <point x="534" y="88"/>
      <point x="534" y="0"/>
      <point x="534" y="0" type="curve"/>
    </contour>
    <contour>
      <point x="149" y="0" type="line"/>
      <point x="149" y="240" type="line"/>
      <point x="188" y="285"/>
      <point x="231" y="302"/>
      <point x="309" y="302" type="curve" smooth="yes"/>
      <point x="410" y="302" type="line"/>
      <point x="410" y="390" type="line"/>
      <point x="309" y="390" type="line" smooth="yes"/>
      <point x="230" y="390"/>
      <point x="184" y="368"/>
      <point x="149" y="331" type="curve"/>
      <point x="149" y="432" type="line" smooth="yes"/>
      <point x="149" y="565"/>
      <point x="219" y="612"/>
      <point x="309" y="612" type="curve" smooth="yes" name="hr04"/>
      <point x="444" y="612" type="line" name="hr05"/>
      <point x="444" y="0" type="line"/>
      <point x="534" y="0" type="line"/>
      <point x="534" y="700" type="line"/>
      <point x="309" y="700" type="line" smooth="yes"/>
      <point x="158" y="700"/>
      <point x="60" y="580"/>
      <point x="60" y="440" type="curve" smooth="yes" name="hr06"/>
      <point x="60" y="0" type="line"/>
    </contour>
  </outline>
</glyph>
<glyph name="Eth" format="1">
  <advance width="611"/>
  <unicode hex="00D0"/>
  <outline>
    <contour>
      <point x="206" y="0" type="line"/>
      <point x="399" y="0"/>
      <point x="551" y="140"/>
      <point x="551" y="354" type="curve" smooth="yes"/>
      <point x="551" y="615"/>
      <point x="376" y="700"/>
      <point x="195" y="700" type="curve" smooth="yes"/>
      <point x="70" y="700" type="line"/>
      <point x="70" y="0" type="line"/>
    </contour>
    <contour>
      <point x="198" y="612" type="line"/>
      <point x="356" y="612"/>
      <point x="450" y="519"/>
      <point x="450" y="356" type="curve" smooth="yes"/>
      <point x="450" y="179"/>
      <point x="337" y="88"/>
      <point x="218" y="88" type="curve" smooth="yes"/>
      <point x="164" y="88" type="line"/>
      <point x="164" y="612" type="line"/>
    </contour>
    <contour>
      <point x="-6" y="318" type="line"/>
      <point x="298" y="318" type="line"/>
      <point x="298" y="406" type="line"/>
      <point x="-6" y="406" type="line"/>
    </contour>
  </outline>
</glyph>
<glyph name="multiply" format="1">
  <advance width="580"/>
  <unicode hex="00D7"/>
  <outline>
    <contour>
      <point x="290" y="185" type="line"/>
      <point x="475" y="0" type="line"/>
      <point x="530" y="55" type="line"/>
      <point x="345" y="240" type="line"/>
      <point x="530" y="425" type="line"/>
      <point x="475" y="480" type="line"/>
      <point x="290" y="295" type="line"/>
      <point x="105" y="480" type="line"/>
      <point x="50" y="425" type="line"/>
      <point x="235" y="240" type="line"/>
      <point x="50" y="55" type="line"/>
      <point x="105" y="0" type="line"/>
    </contour>
  </outline>
</glyph>
<glyph name="Oslash" format="1">
  <advance width="828"/>
  <unicode hex="00D8"/>
  <outline>
    <component base="O" xOffset="23"/>
    <contour>
      <point x="769" y="700" type="line"/>
      <point x="674" y="700" type="line"/>
      <point x="617" y="632" type="line"/>
      <point x="565" y="583" type="line"/>
      <point x="211" y="168" type="line"/>
      <point x="161" y="121" type="line"/>
      <point x="58" y="0" type="line"/>
      <point x="154" y="0" type="line"/>
      <point x="210" y="66" type="line"/>
      <point x="257" y="109" type="line"/>
      <point x="608" y="521" type="line"/>
      <point x="650" y="558" type="line"/>
    </contour>
  </outline>
</glyph>
<glyph name="Thorn" format="1">
  <advance width="547"/>
  <unicode hex="00DE"/>
  <outline>
    <contour>
      <point x="277" y="526" type="line" smooth="yes"/>
      <point x="369" y="526"/>
      <point x="414" y="465"/>
      <point x="414" y="389" type="curve" smooth="yes"/>
      <point x="414" y="310"/>
      <point x="362" y="247"/>
      <point x="270" y="247" type="curve" smooth="yes"/>
      <point x="184" y="247" type="line"/>
      <point x="184" y="159" type="line"/>
      <point x="259" y="159" type="line" smooth="yes"/>
      <point x="377" y="159"/>
      <point x="513" y="215"/>
      <point x="513" y="387" type="curve" smooth="yes"/>
      <point x="513" y="513"/>
      <point x="433" y="614"/>
      <point x="278" y="614" type="curve"/>
      <point x="139" y="614" type="line"/>
      <point x="139" y="700" type="line"/>
      <point x="45" y="700" type="line"/>
      <point x="45" y="0" type="line"/>
      <point x="139" y="0" type="line"/>
      <point x="139" y="526" type="line"/>
    </contour>
  </outline>
</glyph>
<glyph name="germandbls" format="1">
  <advance width="512"/>
  <unicode hex="00DF"/>
  <outline>
    <contour>
      <point x="-1" y="396" type="line"/>
      <point x="67" y="396" type="line"/>
      <point x="67" y="0" type="line"/>
      <point x="157" y="0" type="line"/>
      <point x="157" y="448" type="line" smooth="yes"/>
      <point x="157" y="573"/>
      <point x="210" y="616"/>
      <point x="281" y="616" type="curve" smooth="yes"/>
      <point x="324" y="616"/>
      <point x="347" y="584"/>
      <point x="347" y="552" type="curve" smooth="yes"/>
      <point x="347" y="498"/>
      <point x="294" y="474"/>
      <point x="258" y="440" type="curve" smooth="yes"/>
      <point x="228" y="412"/>
      <point x="209" y="382"/>
      <point x="209" y="350" type="curve" smooth="yes"/>
      <point x="209" y="221"/>
      <point x="386" y="248"/>
      <point x="386" y="154" type="curve" smooth="yes"/>
      <point x="386" y="122"/>
      <point x="377" y="84"/>
      <point x="312" y="84" type="curve" smooth="yes"/>
      <point x="219" y="84" type="line"/>
      <point x="219" y="0" type="line"/>
      <point x="312" y="0" type="line" smooth="yes"/>
      <point x="457" y="0"/>
      <point x="476" y="84"/>
      <point x="476" y="154" type="curve" smooth="yes"/>
      <point x="476" y="319"/>
      <point x="299" y="289"/>
      <point x="299" y="350" type="curve" smooth="yes"/>
      <point x="299" y="365"/>
      <point x="305" y="373"/>
      <point x="316" y="382" type="curve" smooth="yes"/>
      <point x="377" y="429"/>
      <point x="437" y="476"/>
      <point x="437" y="552" type="curve" smooth="yes"/>
      <point x="437" y="628"/>
      <point x="382" y="700"/>
      <point x="281" y="700" type="curve" smooth="yes"/>
      <point x="158" y="700"/>
      <point x="67" y="618"/>
      <point x="67" y="480" type="curve"/>
      <point x="39" y="480" type="line"/>
    </contour>
  </outline>
</glyph>
<glyph name="ae" format="1">
  <advance width="812"/>
  <unicode hex="00E6"/>
  <outline>
    <contour>
      <point x="308" y="288" type="line"/>
      <point x="283" y="295"/>
      <point x="258" y="298"/>
      <point x="231" y="298" type="curve" smooth="yes"/>
      <point x="131" y="298"/>
      <point x="45" y="254"/>
      <point x="45" y="151" type="curve" smooth="yes"/>
      <point x="45" y="48"/>
      <point x="131" y="1"/>
      <point x="231" y="1" type="curve" smooth="yes"/>
      <point x="302" y="1"/>
      <point x="367" y="28"/>
      <point x="423" y="69" type="curve"/>
      <point x="466" y="19"/>
      <point x="532" y="-10"/>
      <point x="616" y="-10" type="curve" smooth="yes" name="hr01"/>
      <point x="676" y="-10"/>
      <point x="736" y="11"/>
      <point x="779" y="46" type="curve"/>
      <point x="719" y="105" type="line"/>
      <point x="693" y="85"/>
      <point x="654" y="74"/>
      <point x="616" y="74" type="curve" smooth="yes"/>
      <point x="523" y="74"/>
      <point x="459" y="141"/>
      <point x="459" y="240" type="curve" smooth="yes"/>
      <point x="459" y="328"/>
      <point x="512" y="410"/>
      <point x="611" y="410" type="curve" smooth="yes"/>
      <point x="656" y="410"/>
      <point x="693" y="392"/>
      <point x="693" y="348" type="curve" smooth="yes"/>
      <point x="693" y="286"/>
      <point x="665" y="259"/>
      <point x="574" y="259" type="curve" smooth="yes"/>
      <point x="526" y="259" type="line"/>
      <point x="526" y="182" type="line"/>
      <point x="567" y="182" type="line" smooth="yes"/>
      <point x="699" y="182"/>
      <point x="786" y="229"/>
      <point x="786" y="349" type="curve" smooth="yes"/>
      <point x="786" y="448"/>
      <point x="719" y="490"/>
      <point x="616" y="490" type="curve" smooth="yes"/>
      <point x="530" y="490"/>
      <point x="464" y="461"/>
      <point x="421" y="408" type="curve"/>
      <point x="388" y="455"/>
      <point x="331" y="480"/>
      <point x="252" y="480" type="curve" smooth="yes"/>
      <point x="87" y="480" type="line"/>
      <point x="87" y="396" type="line"/>
      <point x="247" y="396" type="line" smooth="yes"/>
      <point x="319" y="396"/>
      <point x="367" y="361"/>
      <point x="367" y="275" type="curve" smooth="yes"/>
      <point x="367" y="249"/>
      <point x="366" y="239"/>
      <point x="366" y="230" type="curve" smooth="yes"/>
      <point x="366" y="195"/>
      <point x="372" y="163"/>
      <point x="383" y="134" type="curve"/>
      <point x="339" y="100"/>
      <point x="291" y="78"/>
      <point x="234" y="78" type="curve" smooth="yes"/>
      <point x="172" y="78"/>
      <point x="135" y="105"/>
      <point x="135" y="150" type="curve" smooth="yes"/>
      <point x="135" y="195"/>
      <point x="172" y="221"/>
      <point x="234" y="221" type="curve" smooth="yes"/>
      <point x="257" y="221"/>
      <point x="282" y="219"/>
      <point x="309" y="204" type="curve"/>
    </contour>
  </outline>
</glyph>
<glyph name="iacute" format="1">
  <advance width="264"/>
  <unicode hex="00ED"/>
  <outline>
    <component base="acute" xOffset="37"/>
    <contour>
      <point x="190" y="0" type="line"/>
      <point x="190" y="480" type="line"/>
      <point x="60" y="480" type="line"/>
      <point x="20" y="396" type="line"/>
      <point x="102" y="396" type="line"/>
      <point x="102" y="0" type="line"/>
    </contour>
  </outline>
</glyph>
<glyph name="icircumflex" format="1">
  <advance width="264"/>
  <unicode hex="00EE"/>
  <outline>
    <component base="circumflex" xOffset="-59"/>
    <contour>
      <point x="190" y="0" type="line"/>
      <point x="190" y="480" type="line"/>
      <point x="60" y="480" type="line"/>
      <point x="20" y="396" type="line"/>
      <point x="102" y="396" type="line"/>
      <point x="102" y="0" type="line"/>
    </contour>
  </outline>
</glyph>
<glyph name="idieresis" format="1">
  <advance width="264"/>
  <unicode hex="00EF"/>
  <outline>
    <component base="dieresis" xOffset="-49"/>
    <contour>
      <point x="190" y="0" type="line"/>
      <point x="190" y="480" type="line"/>
      <point x="60" y="480" type="line"/>
      <point x="20" y="396" type="line"/>
      <point x="102" y="396" type="line"/>
      <point x="102" y="0" type="line"/>
    </contour>
  </outline>
</glyph>
<glyph name="eth" format="1">
  <advance width="586"/>
  <unicode hex="00F0"/>
  <outline>
    <contour>
      <point x="165" y="656" type="line"/>
      <point x="182" y="649"/>
      <point x="205" y="639"/>
      <point x="248" y="611" type="curve"/>
      <point x="157" y="564" type="line"/>
      <point x="205" y="506" type="line"/>
      <point x="311" y="561" type="line"/>
      <point x="394" y="483"/>
      <point x="449" y="375"/>
      <point x="449" y="268" type="curve" smooth="yes"/>
      <point x="449" y="122"/>
      <point x="384" y="74"/>
      <point x="288" y="74" type="curve" smooth="yes"/>
      <point x="195" y="74"/>
      <point x="133" y="141"/>
      <point x="133" y="240" type="curve" smooth="yes"/>
      <point x="133" y="327"/>
      <point x="190" y="386"/>
      <point x="289" y="386" type="curve" smooth="yes"/>
      <point x="317" y="386"/>
      <point x="339" y="380"/>
      <point x="356" y="373" type="curve"/>
      <point x="338" y="466" type="line"/>
      <point x="325" y="469"/>
      <point x="305" y="470"/>
      <point x="288" y="470" type="curve" smooth="yes"/>
      <point x="147" y="470"/>
      <point x="44" y="370"/>
      <point x="44" y="240" type="curve" smooth="yes"/>
      <point x="44" y="103"/>
      <point x="145" y="-10"/>
      <point x="290" y="-10" type="curve" smooth="yes"/>
      <point x="450" y="-10"/>
      <point x="537" y="121"/>
      <point x="537" y="268" type="curve" smooth="yes"/>
      <point x="537" y="396"/>
      <point x="470" y="520"/>
      <point x="385" y="600" type="curve"/>
      <point x="476" y="649" type="line"/>
      <point x="427" y="707" type="line"/>
      <point x="324" y="652" type="line"/>
      <point x="277" y="688"/>
      <point x="238" y="705"/>
      <point x="219" y="712" type="curve"/>
    </contour>
  </outline>
</glyph>
<glyph name="oslash" format="1">
  <advance width="566"/>
  <unicode hex="00F8"/>
  <outline>
    <component base="o" xOffset="-7"/>
    <contour>
      <point x="448" y="507" type="line"/>
      <point x="393" y="436" type="line"/>
      <point x="365" y="412" type="line"/>
      <point x="143" y="122" type="line"/>
      <point x="103" y="82" type="line"/>
      <point x="29" y="-15" type="line"/>
      <point x="119" y="-15" type="line"/>
      <point x="160" y="39" type="line"/>
      <point x="197" y="75" type="line"/>
      <point x="409" y="352" type="line"/>
      <point x="448" y="390" type="line"/>
      <point x="537" y="507" type="line"/>
    </contour>
  </outline>
</glyph>
<glyph name="thorn" format="1">
  <advance width="580"/>
  <unicode hex="00FE"/>
  <outline>
    <contour>
      <point x="145" y="-229" type="line"/>
      <point x="145" y="406" type="line"/>
      <point x="290" y="406" type="line" smooth="yes"/>
      <point x="400" y="406"/>
      <point x="457" y="336"/>
      <point x="457" y="240" type="curve" smooth="yes"/>
      <point x="457" y="142"/>
      <point x="390" y="74"/>
      <point x="297" y="74" type="curve" smooth="yes"/>
      <point x="257" y="74"/>
      <point x="216" y="85"/>
      <point x="181" y="110" type="curve"/>
      <point x="181" y="20" type="line"/>
      <point x="219" y="-1"/>
      <point x="259" y="-10"/>
      <point x="297" y="-10" type="curve" smooth="yes"/>
      <point x="437" y="-10"/>
      <point x="546" y="99"/>
      <point x="546" y="240" type="curve" smooth="yes"/>
      <point x="546" y="387"/>
      <point x="445" y="490"/>
      <point x="290" y="490" type="curve" smooth="yes"/>
      <point x="145" y="490" type="line"/>
      <point x="145" y="701" type="line"/>
      <point x="55" y="701" type="line"/>
      <point x="55" y="-229" type="line"/>
    </contour>
  </outline>
</glyph>
<glyph name="dotlessi" format="1">
  <advance width="264"/>
  <unicode hex="0131"/>
  <outline>
    <contour>
      <point x="190" y="0" type="line"/>
      <point x="190" y="480" type="line"/>
      <point x="60" y="480" type="line"/>
      <point x="20" y="396" type="line"/>
      <point x="102" y="396" type="line"/>
      <point x="102" y="0" type="line"/>
    </contour>
  </outline>
</glyph>
<glyph name="OE" format="1">
  <advance width="1098"/>
  <unicode hex="0152"/>
  <outline>
    <contour>
      <point x="412" y="78" type="curve" smooth="yes"/>
      <point x="264" y="78"/>
      <point x="186" y="201"/>
      <point x="184" y="347" type="curve"/>
      <point x="186" y="493"/>
      <point x="264" y="622"/>
      <point x="412" y="622" type="curve"/>
      <point x="560" y="622"/>
      <point x="638" y="493"/>
      <point x="640" y="347" type="curve" name="hr01"/>
      <point x="638" y="201"/>
      <point x="560" y="78"/>
    </contour>
    <contour>
      <point x="412" y="-10" type="curve" smooth="yes"/>
      <point x="608" y="-10"/>
      <point x="726" y="124"/>
      <point x="728" y="347" type="curve"/>
      <point x="726" y="570"/>
      <point x="608" y="710"/>
      <point x="412" y="710" type="curve"/>
      <point x="216" y="710"/>
      <point x="85" y="570"/>
      <point x="83" y="347" type="curve"/>
      <point x="85" y="124"/>
      <point x="216" y="-10"/>
    </contour>
    <contour>
      <point x="734" y="520" type="line" smooth="yes"/>
      <point x="734" y="600"/>
      <point x="800" y="612"/>
      <point x="844" y="612" type="curve" smooth="yes" name="hr02"/>
      <point x="1038" y="612" type="line"/>
      <point x="1038" y="700" type="line"/>
      <point x="857" y="700" type="line" smooth="yes"/>
      <point x="795" y="700"/>
      <point x="735" y="697"/>
      <point x="687" y="652" type="curve" smooth="yes"/>
      <point x="664" y="630"/>
      <point x="640" y="593"/>
      <point x="640" y="533" type="curve" name="hr03"/>
      <point x="640" y="0" type="line"/>
      <point x="734" y="0" type="line"/>
      <point x="734" y="318" type="line"/>
      <point x="965" y="318" type="line"/>
      <point x="965" y="406" type="line"/>
      <point x="734" y="406" type="line"/>
    </contour>
    <contour>
      <point x="1038" y="0" type="line"/>
      <point x="1038" y="88" type="line"/>
      <point x="734" y="88" type="line"/>
      <point x="734" y="88"/>
      <point x="734" y="0"/>
      <point x="734" y="0" type="curve"/>
    </contour>
  </outline>
</glyph>
<glyph name="circumflex" format="1">
  <advance width="382"/>
  <unicode hex="02C6"/>
  <outline>
    <contour>
      <point x="191" y="652" type="line"/>
      <point x="271" y="558" type="line"/>
      <point x="352" y="558" type="line"/>
      <point x="242" y="700" type="line"/>
      <point x="141" y="700" type="line"/>
      <point x="31" y="558" type="line"/>
      <point x="112" y="558" type="line"/>
    </contour>
  </outline>
</glyph>
<glyph name="caron" format="1">
  <advance width="382"/>
  <unicode hex="02C7"/>
  <outline>
    <contour>
      <point x="192" y="606" type="line"/>
      <point x="112" y="700" type="line"/>
      <point x="31" y="700" type="line"/>
      <point x="141" y="558" type="line"/>
      <point x="242" y="558" type="line"/>
      <point x="352" y="700" type="line"/>
      <point x="271" y="700" type="line"/>
    </contour>
  </outline>
</glyph>
<glyph name="ring" format="1">
  <advance width="266"/>
  <unicode hex="02DA"/>
  <outline>
    <contour>
      <point x="35" y="624" type="curve" smooth="yes"/>
      <point x="35" y="568"/>
      <point x="77" y="526"/>
      <point x="133" y="526" type="curve" smooth="yes"/>
      <point x="189" y="526"/>
      <point x="231" y="568"/>
      <point x="231" y="624" type="curve" smooth="yes"/>
      <point x="231" y="680"/>
      <point x="189" y="722"/>
      <point x="133" y="722" type="curve" smooth="yes"/>
      <point x="77" y="722"/>
      <point x="35" y="680"/>
    </contour>
    <contour>
      <point x="85" y="624" type="curve" smooth="yes"/>
      <point x="85" y="651"/>
      <point x="106" y="671"/>
      <point x="133" y="671" type="curve" smooth="yes"/>
      <point x="160" y="671"/>
      <point x="180" y="651"/>
      <point x="180" y="624" type="curve" smooth="yes"/>
      <point x="180" y="597"/>
      <point x="160" y="576"/>
      <point x="133" y="576" type="curve" smooth="yes"/>
      <point x="106" y="576"/>
      <point x="85" y="597"/>
    </contour>
  </outline>
</glyph>
<glyph name="tilde" format="1">
  <advance width="428"/>
  <unicode hex="02DC"/>
  <outline>
    <contour>
      <point x="342" y="676" type="line"/>
      <point x="342" y="652"/>
      <point x="323" y="629"/>
      <point x="293" y="629" type="curve" smooth="yes"/>
      <point x="268" y="629"/>
      <point x="242" y="641"/>
      <point x="221" y="650" type="curve" smooth="yes"/>
      <point x="189" y="662"/>
      <point x="167" y="669"/>
      <point x="140" y="669" type="curve" smooth="yes"/>
      <point x="64" y="669"/>
      <point x="38" y="604"/>
      <point x="35" y="554" type="curve"/>
      <point x="86" y="554" type="line"/>
      <point x="91" y="585"/>
      <point x="110" y="601"/>
      <point x="134" y="601" type="curve" smooth="yes"/>
      <point x="150" y="601"/>
      <point x="167" y="594"/>
      <point x="192" y="585" type="curve"/>
      <point x="211" y="576"/>
      <point x="260" y="561"/>
      <point x="285" y="561" type="curve" smooth="yes"/>
      <point x="343" y="561"/>
      <point x="390" y="612"/>
      <point x="393" y="676" type="curve"/>
    </contour>
  </outline>
</glyph>
<glyph name="endash" format="1">
  <advance width="566"/>
  <unicode hex="2013"/>
  <outline>
    <contour>
      <point x="533" y="208" type="line"/>
      <point x="533" y="282" type="line"/>
      <point x="33" y="282" type="line"/>
      <point x="33" y="208" type="line"/>
    </contour>
  </outline>
</glyph>
<glyph name="emdash" format="1">
  <advance width="716"/>
  <unicode hex="2014"/>
  <outline>
    <contour>
      <point x="683" y="208" type="line"/>
      <point x="683" y="282" type="line"/>
      <point x="33" y="282" type="line"/>
      <point x="33" y="208" type="line"/>
    </contour>
  </outline>
</glyph>
<glyph name="bullet" format="1">
  <advance width="412"/>
  <unicode hex="2022"/>
  <outline>
    <contour>
      <point x="206" y="481" type="curve" smooth="yes"/>
      <point x="132" y="481"/>
      <point x="75" y="424"/>
      <point x="75" y="350" type="curve" smooth="yes"/>
      <point x="75" y="276"/>
      <point x="132" y="219"/>
      <point x="206" y="219" type="curve" smooth="yes"/>
      <point x="280" y="219"/>
      <point x="337" y="276"/>
      <point x="337" y="350" type="curve" smooth="yes"/>
      <point x="337" y="424"/>
      <point x="280" y="481"/>
    </contour>
  </outline>
</glyph>
<glyph name="guilsinglleft" format="1">
  <advance width="291"/>
  <unicode hex="2039"/>
  <outline>
    <contour>
      <point x="151" y="240" type="line"/>
      <point x="276" y="394" type="line"/>
      <point x="180" y="394" type="line"/>
      <point x="55" y="240" type="line"/>
      <point x="180" y="86" type="line"/>
      <point x="276" y="86" type="line"/>
    </contour>
  </outline>
</glyph>
<glyph name="guilsinglright" format="1">
  <advance width="291"/>
  <unicode hex="203A"/>
  <outline>
    <contour>
      <point x="140" y="240" type="line"/>
      <point x="15" y="86" type="line"/>
      <point x="111" y="86" type="line"/>
      <point x="236" y="240" type="line"/>
      <point x="111" y="394" type="line"/>
      <point x="15" y="394" type="line"/>
    </contour>
  </outline>
</glyph>
<glyph name="fraction" format="1">
  <advance width="322"/>
  <unicode hex="2044"/>
  <outline>
    <contour>
      <point x="291" y="700" type="line"/>
      <point x="-40" y="0" type="line"/>
      <point x="43" y="0" type="line"/>
      <point x="372" y="700" type="line"/>
    </contour>
  </outline>
</glyph>
<glyph name="foursuperior" format="1">
  <advance width="306"/>
  <unicode hex="2074"/>
  <outline>
    <contour>
      <point x="174" y="380" type="line"/>
      <point x="240" y="380" type="line"/>
      <point x="240" y="700" type="line"/>
      <point x="174" y="700" type="line"/>
    </contour>
    <contour>
      <point x="46" y="452" type="line"/>
      <point x="281" y="452" type="line"/>
      <point x="281" y="503" type="line"/>
      <point x="46" y="503" type="line"/>
    </contour>
    <contour>
      <point x="174" y="700" type="line"/>
      <point x="88" y="596" type="line" smooth="yes"/>
      <point x="51" y="551"/>
      <point x="21" y="514"/>
      <point x="21" y="472" type="curve" smooth="yes"/>
      <point x="21" y="452" type="line"/>
      <point x="88" y="452" type="line"/>
      <point x="88" y="472" type="line" smooth="yes"/>
      <point x="88" y="507"/>
      <point x="100" y="528"/>
      <point x="139" y="573" type="curve"/>
      <point x="188" y="644" type="line"/>
      <point x="188" y="700" type="line"/>
    </contour>
  </outline>
</glyph>
<glyph name="Euro" format="1">
  <advance width="535"/>
  <unicode hex="20AC"/>
  <outline>
    <component base="C" xOffset="20"/>
    <contour>
      <point x="420" y="459" type="line"/>
      <point x="10" y="459" type="line"/>
      <point x="10" y="381" type="line"/>
      <point x="420" y="381" type="line"/>
    </contour>
    <contour>
      <point x="400" y="331" type="line"/>
      <point x="-10" y="331" type="line"/>
      <point x="-10" y="253" type="line"/>
      <point x="400" y="253" type="line"/>
    </contour>
  </outline>
</glyph>
<glyph name="hryvnia" format="1">
  <advance width="527"/>
  <unicode hex="20B4"/>
  <outline>
    <contour>
      <point x="56" y="458" type="line"/>
      <point x="56" y="380" type="line"/>
      <point x="476" y="380" type="line"/>
      <point x="476" y="458" type="line"/>
      <point x="419" y="458" type="line"/>
      <point x="421" y="471"/>
      <point x="422" y="485"/>
      <point x="422" y="501" type="curve" smooth="yes"/>
      <point x="422" y="643"/>
      <point x="294" y="696"/>
      <point x="212" y="699" type="curve" smooth="yes"/>
      <point x="198" y="700"/>
      <point x="185" y="700"/>
      <point x="172" y="700" type="curve" smooth="yes"/>
      <point x="96" y="700" type="line"/>
      <point x="96" y="612" type="line"/>
      <point x="169" y="612" type="line" smooth="yes"/>
      <point x="254" y="612"/>
      <point x="323" y="577"/>
      <point x="323" y="500" type="curve" smooth="yes"/>
      <point x="323" y="484"/>
      <point x="320" y="470"/>
      <point x="314" y="458" type="curve"/>
    </contour>
    <contour>
      <point x="476" y="242" type="line"/>
      <point x="476" y="320" type="line"/>
      <point x="56" y="320" type="line"/>
      <point x="56" y="242" type="line"/>
      <point x="113" y="242" type="line"/>
      <point x="111" y="229"/>
      <point x="110" y="214"/>
      <point x="110" y="199" type="curve" smooth="yes"/>
      <point x="110" y="57"/>
      <point x="238" y="4"/>
      <point x="320" y="1" type="curve" smooth="yes"/>
      <point x="334" y="0"/>
      <point x="347" y="0"/>
      <point x="360" y="0" type="curve" smooth="yes"/>
      <point x="436" y="0" type="line"/>
      <point x="436" y="88" type="line"/>
      <point x="363" y="88" type="line" smooth="yes"/>
      <point x="278" y="88"/>
      <point x="209" y="123"/>
      <point x="209" y="200" type="curve" smooth="yes"/>
      <point x="209" y="216"/>
      <point x="212" y="230"/>
      <point x="218" y="242" type="curve"/>
    </contour>
  </outline>
</glyph>
<glyph name="minus" format="1">
  <advance width="580"/>
  <unicode hex="2212"/>
  <outline>
    <contour>
      <point x="530" y="201" type="line"/>
      <point x="530" y="279" type="line"/>
      <point x="50" y="279" type="line"/>
      <point x="50" y="201" type="line"/>
    </contour>
  </outline>
</glyph>
<glyph name=".notdef" format="1">
  <advance width="512"/>
  <outline>
    <contour>
      <point x="56" y="0" type="line"/>
      <point x="456" y="0" type="line"/>
      <point x="456" y="512" type="line"/>
      <point x="56" y="512" type="line"/>
    </contour>
    <contour>
      <point x="116" y="442" type="line"/>
      <point x="396" y="442" type="line"/>
      <point x="396" y="70" type="line"/>
      <point x="116" y="70" type="line"/>
    </contour>
  </outline>
</glyph>
<glyph name="foundryicon" format="1">
  <advance width="1492"/>
  <outline>
    <contour>
      <point x="1372" y="-6" type="curve" smooth="yes"/>
      <point x="1447" y="-6"/>
      <point x="1454" y="95"/>
      <point x="1447" y="140" type="curve" smooth="yes"/>
      <point x="1445" y="151"/>
      <point x="1443" y="145"/>
      <point x="1443" y="140" type="curve"/>
      <point x="1431" y="78"/>
      <point x="1410" y="39"/>
      <point x="1382" y="18" type="curve"/>
      <point x="1364" y="44"/>
      <point x="1356" y="79"/>
      <point x="1356" y="122" type="curve"/>
      <point x="1402" y="143"/>
      <point x="1427" y="229"/>
      <point x="1427" y="300" type="curve" smooth="yes"/>
      <point x="1427" y="375"/>
      <point x="1407" y="407"/>
      <point x="1334" y="419" type="curve"/>
      <point x="1285" y="331"/>
      <point x="1271" y="177"/>
      <point x="1294" y="61" type="curve" smooth="yes"/>
      <point x="1296" y="53" type="line"/>
      <point x="1291" y="43"/>
      <point x="1277" y="15"/>
      <point x="1265" y="18" type="curve"/>
      <point x="1247" y="80"/>
      <point x="1253" y="180"/>
      <point x="1262" y="245" type="curve"/>
      <point x="1253" y="255"/>
      <point x="1221" y="268"/>
      <point x="1207" y="265" type="curve"/>
      <point x="1203" y="261"/>
      <point x="1195" y="227"/>
      <point x="1194" y="221" type="curve"/>
      <point x="1181" y="225"/>
      <point x="1164" y="229"/>
      <point x="1150" y="229" type="curve"/>
      <point x="1121" y="198"/>
      <point x="1111" y="157"/>
      <point x="1109" y="112" type="curve"/>
      <point x="1109" y="79" type="line"/>
      <point x="1101" y="59"/>
      <point x="1087" y="30"/>
      <point x="1064" y="20" type="curve"/>
      <point x="1052" y="28"/>
      <point x="1047" y="45"/>
      <point x="1043" y="62" type="curve"/>
      <point x="1077" y="73"/>
      <point x="1095" y="120"/>
      <point x="1095" y="162" type="curve" smooth="yes"/>
      <point x="1095" y="223"/>
      <point x="1057" y="245"/>
      <point x="1004" y="241" type="curve"/>
      <point x="989" y="215"/>
      <point x="979" y="162"/>
      <point x="978" y="117" type="curve"/>
      <point x="975" y="57"/>
      <point x="997" y="0"/>
      <point x="1062" y="0" type="curve"/>
      <point x="1089" y="3"/>
      <point x="1107" y="22"/>
      <point x="1117" y="39" type="curve"/>
      <point x="1124" y="16"/>
      <point x="1141" y="0"/>
      <point x="1173" y="0" type="curve"/>
      <point x="1189" y="2"/>
      <point x="1211" y="15"/>
      <point x="1215" y="32" type="curve"/>
      <point x="1222" y="15"/>
      <point x="1241" y="-6"/>
      <point x="1264" y="-6" type="curve" smooth="yes"/>
      <point x="1285" y="-6"/>
      <point x="1300" y="13"/>
      <point x="1305" y="31" type="curve"/>
      <point x="1319" y="7"/>
      <point x="1342" y="-6"/>
    </contour>
    <contour>
      <point x="778" y="235" type="curve"/>
      <point x="762" y="253"/>
      <point x="727" y="267"/>
      <point x="706" y="265" type="curve"/>
      <point x="713" y="218"/>
      <point x="731" y="124"/>
      <point x="714" y="47" type="curve" smooth="yes"/>
      <point x="713" y="42"/>
      <point x="710" y="32"/>
      <point x="701" y="30" type="curve"/>
      <point x="683" y="87"/>
      <point x="683" y="151"/>
      <point x="687" y="218" type="curve"/>
      <point x="671" y="233"/>
      <point x="640" y="239"/>
      <point x="628" y="241" type="curve"/>
      <point x="621" y="227"/>
      <point x="616" y="205"/>
      <point x="616" y="175" type="curve" smooth="yes"/>
      <point x="616" y="142"/>
      <point x="619" y="108"/>
      <point x="627" y="80" type="curve"/>
      <point x="618" y="59"/>
      <point x="598" y="23"/>
      <point x="566" y="13" type="curve"/>
      <point x="487" y="69"/>
      <point x="516" y="320"/>
      <point x="557" y="359" type="curve"/>
      <point x="568" y="345"/>
      <point x="580" y="293"/>
      <point x="575" y="260" type="curve" smooth="yes"/>
      <point x="574" y="257"/>
      <point x="574" y="250"/>
      <point x="581" y="258" type="curve"/>
      <point x="604" y="278"/>
      <point x="621" y="303"/>
      <point x="621" y="333" type="curve" smooth="yes"/>
      <point x="621" y="411"/>
      <point x="564" y="424"/>
      <point x="526" y="432" type="curve"/>
      <point x="458" y="373"/>
      <point x="434" y="270"/>
      <point x="435" y="169" type="curve"/>
      <point x="437" y="81"/>
      <point x="473" y="-10"/>
      <point x="569" y="-10" type="curve" smooth="yes"/>
      <point x="610" y="-10"/>
      <point x="630" y="20"/>
      <point x="639" y="45" type="curve"/>
      <point x="652" y="18"/>
      <point x="673" y="0"/>
      <point x="702" y="0" type="curve" smooth="yes"/>
      <point x="710" y="0"/>
      <point x="718" y="6"/>
      <point x="721" y="11" type="curve"/>
      <point x="711" y="-71"/>
      <point x="709" y="-126"/>
      <point x="658" y="-160" type="curve"/>
      <point x="652" y="-136"/>
      <point x="656" y="-104"/>
      <point x="659" y="-81" type="curve"/>
      <point x="643" y="-64"/>
      <point x="618" y="-58"/>
      <point x="598" y="-58" type="curve"/>
      <point x="593" y="-74"/>
      <point x="589" y="-93"/>
      <point x="589" y="-113" type="curve" smooth="yes"/>
      <point x="589" y="-158"/>
      <point x="600" y="-182"/>
      <point x="644" y="-182" type="curve" smooth="yes"/>
      <point x="767" y="-182"/>
      <point x="802" y="38"/>
    </contour>
    <contour>
      <point x="243" y="69" type="curve"/>
      <point x="251" y="69" type="line"/>
      <point x="251" y="68"/>
      <point x="254" y="63"/>
      <point x="257" y="63" type="curve"/>
      <point x="255" y="62"/>
      <point x="254" y="61"/>
      <point x="254" y="59" type="curve"/>
      <point x="254" y="57"/>
      <point x="266" y="54"/>
      <point x="279" y="47" type="curve"/>
      <point x="274" y="45"/>
      <point x="271" y="45"/>
      <point x="266" y="41" type="curve"/>
      <point x="269" y="39" type="line"/>
      <point x="276" y="42"/>
      <point x="277" y="43"/>
      <point x="284" y="43" type="curve"/>
      <point x="292" y="44"/>
      <point x="298" y="40"/>
      <point x="304" y="34" type="curve"/>
      <point x="304" y="34"/>
      <point x="305" y="34"/>
      <point x="306" y="36" type="curve"/>
      <point x="304" y="41"/>
      <point x="299" y="43"/>
      <point x="295" y="45" type="curve"/>
      <point x="303" y="45"/>
      <point x="307" y="43"/>
      <point x="313" y="41" type="curve"/>
      <point x="314" y="42"/>
      <point x="314" y="41"/>
      <point x="314" y="42" type="curve"/>
      <point x="304" y="49"/>
      <point x="295" y="49"/>
      <point x="289" y="48" type="curve"/>
      <point x="279" y="53"/>
      <point x="269" y="57"/>
      <point x="260" y="60" type="curve"/>
      <point x="264" y="63" type="line"/>
      <point x="269" y="65"/>
      <point x="269" y="71"/>
      <point x="269" y="72" type="curve"/>
      <point x="332" y="90"/>
      <point x="342" y="171"/>
      <point x="366" y="209" type="curve"/>
      <point x="376" y="222" type="line"/>
      <point x="376" y="222"/>
      <point x="377" y="222"/>
      <point x="376" y="223" type="curve"/>
      <point x="363" y="223" type="line"/>
      <point x="367" y="236" type="line"/>
      <point x="367" y="236"/>
      <point x="368" y="238"/>
      <point x="366" y="238" type="curve"/>
      <point x="353" y="233" type="line"/>
      <point x="348" y="236"/>
      <point x="341" y="238"/>
      <point x="334" y="238" type="curve" smooth="yes"/>
      <point x="317" y="238"/>
      <point x="299" y="225"/>
      <point x="293" y="204" type="curve"/>
      <point x="281" y="193"/>
      <point x="214" y="182"/>
      <point x="145" y="169" type="curve"/>
      <point x="132" y="169"/>
      <point x="48" y="178"/>
      <point x="46" y="179" type="curve"/>
      <point x="43" y="179"/>
      <point x="41" y="175"/>
      <point x="45" y="172" type="curve" smooth="yes"/>
      <point x="63" y="155"/>
      <point x="110" y="157"/>
      <point x="123" y="144" type="curve" smooth="yes"/>
      <point x="141" y="125"/>
      <point x="168" y="89"/>
      <point x="208" y="75" type="curve"/>
      <point x="209" y="73"/>
      <point x="207" y="68"/>
      <point x="211" y="65" type="curve"/>
      <point x="208" y="63"/>
      <point x="207" y="62"/>
      <point x="207" y="61" type="curve"/>
      <point x="207" y="58"/>
      <point x="219" y="53"/>
      <point x="230" y="44" type="curve"/>
      <point x="223" y="43"/>
      <point x="217" y="43"/>
      <point x="212" y="41" type="curve"/>
      <point x="212" y="40"/>
      <point x="212" y="39"/>
      <point x="213" y="38" type="curve"/>
      <point x="220" y="40"/>
      <point x="228" y="41"/>
      <point x="234" y="39" type="curve"/>
      <point x="241" y="38"/>
      <point x="246" y="31"/>
      <point x="250" y="25" type="curve"/>
      <point x="252" y="25"/>
      <point x="253" y="25"/>
      <point x="253" y="26" type="curve"/>
      <point x="251" y="32"/>
      <point x="247" y="37"/>
      <point x="244" y="39" type="curve"/>
      <point x="252" y="38"/>
      <point x="254" y="36"/>
      <point x="259" y="31" type="curve"/>
      <point x="260" y="32"/>
      <point x="261" y="32"/>
      <point x="261" y="33" type="curve"/>
      <point x="254" y="42"/>
      <point x="244" y="42"/>
      <point x="239" y="43" type="curve"/>
      <point x="214" y="61" type="line"/>
      <point x="214" y="62"/>
      <point x="216" y="62"/>
      <point x="218" y="63" type="curve"/>
      <point x="222" y="62"/>
      <point x="226" y="68"/>
      <point x="227" y="70" type="curve"/>
      <point x="232" y="69"/>
      <point x="237" y="69"/>
    </contour>
    <contour>
      <point x="788" y="247" type="qcurve"/>
      <point x="815" y="181"/>
      <point x="818" y="71"/>
      <point x="822" y="-4" type="curve"/>
      <point x="850" y="-8"/>
      <point x="867" y="11"/>
      <point x="874" y="37" type="curve"/>
      <point x="881" y="55"/>
      <point x="881" y="89"/>
      <point x="881" y="110" type="curve"/>
      <point x="886" y="133"/>
      <point x="903" y="150"/>
      <point x="910" y="167" type="curve"/>
      <point x="915" y="133"/>
      <point x="935" y="120"/>
      <point x="969" y="129" type="curve"/>
      <point x="964" y="159"/>
      <point x="967" y="200"/>
      <point x="972" y="230" type="curve"/>
      <point x="963" y="245"/>
      <point x="939" y="253"/>
      <point x="913" y="255" type="curve"/>
      <point x="908" y="245"/>
      <point x="903" y="227"/>
      <point x="903" y="215" type="curve"/>
      <point x="898" y="199"/>
      <point x="889" y="180"/>
      <point x="874" y="153" type="curve"/>
      <point x="872" y="187"/>
      <point x="864" y="210"/>
      <point x="855" y="227" type="curve"/>
      <point x="844" y="239"/>
      <point x="828" y="242" type="qcurve"/>
      <point x="813" y="245"/>
    </contour>
    <contour>
      <point x="1172" y="23" type="curve"/>
      <point x="1155" y="75"/>
      <point x="1173" y="169"/>
      <point x="1192" y="192" type="curve"/>
      <point x="1190" y="169"/>
      <point x="1189" y="112"/>
      <point x="1201" y="66" type="curve"/>
      <point x="1199" y="49"/>
      <point x="1182" y="31"/>
    </contour>
    <contour>
      <point x="1355" y="151" type="curve"/>
      <point x="1358" y="215"/>
      <point x="1370" y="290"/>
      <point x="1383" y="341" type="curve"/>
      <point x="1392" y="291"/>
      <point x="1383" y="191"/>
    </contour>
    <contour>
      <point x="1058" y="195" type="curve"/>
      <point x="1063" y="187"/>
      <point x="1069" y="171"/>
      <point x="1069" y="153" type="curve" smooth="yes"/>
      <point x="1069" y="123"/>
      <point x="1060" y="87"/>
      <point x="1042" y="84" type="curve"/>
      <point x="1042" y="124"/>
      <point x="1047" y="161"/>
    </contour>
    <contour>
      <point x="412" y="30" type="curve"/>
      <point x="412" y="29" type="line"/>
      <point x="412" y="27"/>
      <point x="414" y="26"/>
      <point x="416" y="26" type="curve"/>
      <point x="417" y="26" type="line"/>
      <point x="419" y="26"/>
      <point x="420" y="27"/>
      <point x="420" y="29" type="curve"/>
      <point x="420" y="30" type="line"/>
      <point x="420" y="31"/>
      <point x="419" y="32"/>
      <point x="419" y="34" type="curve"/>
      <point x="418" y="35"/>
      <point x="417" y="36"/>
      <point x="416" y="36" type="curve"/>
      <point x="415" y="36" type="line"/>
      <point x="414" y="35" type="line"/>
      <point x="413" y="34"/>
      <point x="412" y="31"/>
    </contour>
    <contour>
      <point x="382" y="27" type="line"/>
      <point x="382" y="25"/>
      <point x="382" y="24"/>
      <point x="383" y="24" type="curve"/>
      <point x="383" y="24"/>
      <point x="383" y="23"/>
      <point x="384" y="23" type="curve"/>
      <point x="388" y="23" type="line"/>
      <point x="390" y="23"/>
      <point x="391" y="24"/>
      <point x="392" y="26" type="curve"/>
      <point x="392" y="28" type="line"/>
      <point x="391" y="29"/>
      <point x="390" y="30"/>
      <point x="388" y="30" type="curve"/>
      <point x="385" y="30" type="line"/>
      <point x="384" y="30"/>
      <point x="384" y="30"/>
      <point x="383" y="29" type="curve"/>
      <point x="382" y="28" type="line"/>
    </contour>
    <contour>
      <point x="361" y="34" type="curve"/>
      <point x="361" y="31"/>
      <point x="363" y="30"/>
      <point x="366" y="30" type="curve" smooth="yes"/>
      <point x="370" y="30"/>
      <point x="371" y="31"/>
      <point x="371" y="34" type="curve"/>
      <point x="371" y="36"/>
      <point x="370" y="37"/>
      <point x="366" y="37" type="curve" smooth="yes"/>
      <point x="363" y="37"/>
      <point x="361" y="36"/>
    </contour>
  </outline>
</glyph>
<glyph name="ruble" format="1">
  <advance width="567"/>
  <outline>
    <contour>
      <point x="65" y="0" type="line" name="sh01"/>
      <point x="65" y="126" type="line"/>
      <point x="0" y="126" type="line"/>
      <point x="0" y="204" type="line"/>
      <point x="65" y="204" type="line" name="sh02"/>
      <point x="65" y="255" type="line" name="dv01"/>
      <point x="0" y="255" type="line"/>
      <point x="0" y="343" type="line"/>
      <point x="65" y="343" type="line" name="sh03"/>
      <point x="65" y="460" type="line" smooth="yes"/>
      <point x="65" y="620" name="at01"/>
      <point x="159" y="710" name="sh04"/>
      <point x="297" y="710" type="curve" smooth="yes" name="sv01"/>
      <point x="452" y="710" name="sh06"/>
      <point x="532" y="608"/>
      <point x="532" y="483" type="curve" smooth="yes"/>
      <point x="532" y="311"/>
      <point x="396" y="255"/>
      <point x="278" y="255" type="curve" smooth="yes" name="sh05"/>
      <point x="159" y="255" type="line" name="sv02"/>
      <point x="159" y="204" type="line" name="ah02"/>
      <point x="420" y="204" type="line" name="sv03"/>
      <point x="420" y="126" type="line" name="sh07"/>
      <point x="159" y="126" type="line"/>
      <point x="159" y="0" type="line" name="ah01"/>
    </contour>
    <contour>
      <point x="289" y="343" type="line" smooth="yes" name="sh08"/>
      <point x="381" y="343"/>
      <point x="433" y="406"/>
      <point x="433" y="485" type="curve" smooth="yes"/>
      <point x="433" y="561"/>
      <point x="388" y="622"/>
      <point x="296" y="622" type="curve" smooth="yes"/>
      <point x="208" y="622"/>
      <point x="159" y="556"/>
      <point x="159" y="464" type="curve" smooth="yes"/>
      <point x="159" y="343" type="line"/>
    </contour>
  </outline>
</glyph>
